<!-- Modified from Earth Map of Japan © Geospatial Information Authority of Japan (https://www.gsi.go.jp/kankyochiri/gm_jpn.html) -->
<svg xmlns="http://www.w3.org/2000/svg" version="1.2" width="800" height="925" viewBox="0 0 800 925" stroke="white" stroke-opacity="1" stroke-width="0.1">
<path d="M 663.9 1 664.74 1.52 665.19 3.08 666.01 4.04 666.73 4.38 667.02 5.28 667.37 5.58 667.37 6.23 668.35 7.4 669.52 8.16 672.04 10.06 675.33 14.74 679.7 20.15 682.73 23.58 683.57 24.26 683.88 24.91 684.71 25.66 684.74 26.3 685.13 27.53 685.8 28.01 686.38 28.78 686.68 30.89 687.82 32.29 688.13 32.37 689.17 34.75 689.87 35.26 690.62 36.39 690.62 36.81 691.23 37.48 691.65 38.32 693.11 39.81 694.07 41.06 695.88 42.72 696.55 43.53 697.26 43.98 698.02 44.97 698.67 45.38 698.67 45.81 699.42 46.61 700.19 47.9 700.91 48.68 703.22 50.46 704.25 51.35 708.71 54.44 709.4 55.43 712.67 57.57 713.2 57.79 713.69 58.56 713.68 59.22 714 59.66 715.58 60.85 718.36 62.43 720.56 63.55 723.78 65.07 728.43 67.07 732.45 68.4 735.81 69.28 738.61 69.82 739.41 69.69 740.43 70.27 742.3 70.72 743.4 70.87 744.14 70.65 744.75 70.8 744.93 71.67 744.74 72.84 745.06 73.05 744.84 73.9 745.47 74.68 746.39 76.2 746.34 76.64 747.06 77.18 748.62 77.97 750.13 78.53 753.26 79.31 756.29 79.76 757.62 79.86 760.73 79.75 763.68 79.16 764.06 78.65 765.08 78.19 765.58 77.1 766.57 76.63 767.63 75.68 768.12 75.01 768.61 73.75 770.59 72.48 771.19 71.67 771.19 71.21 772.21 70.62 773.05 69.81 774.67 68.53 776.44 66.98 777.52 66.37 778.58 64.42 778.74 63.78 779.84 62.73 780.63 61.76 780.86 61.12 781.44 60.74 781.88 59.56 782.45 59.04 782.88 59.37 782.79 60 783.03 61.47 783.61 63.26 783 64.01 782.99 64.96 781.56 67.62 780.88 68.44 780.07 69.12 779.26 71.42 779.39 72.51 778.62 73.99 777.94 74.53 777.07 75.8 776.31 76.63 775.38 78.24 774.99 79.52 774.15 81.08 774.3 82.59 773.76 84.5 772.99 85.19 772.93 86.16 773.21 87.82 774.05 89.06 775.07 91.06 775.62 92.64 775.93 92.98 779.42 94.44 781.07 94.89 782.19 95.35 782.73 95.85 783.04 96.82 782.35 97.52 780.97 97.52 781.06 97.12 781.84 96.78 781.6 95.2 780.6 95.6 779.77 95.3 780.12 94.73 778.9 94.48 778.71 94.22 777.68 94.01 777.87 94.7 777.68 95.19 778.52 95.85 778.33 96.28 778.59 97.12 779.43 98.96 779.51 100.28 779.84 101.52 780.02 102.83 780.42 104.37 781.59 106.77 782.51 107.94 784.4 109.71 787.13 110.79 787.78 110.96 788.43 110.64 789.09 109.3 790.04 108.81 791.31 107.66 791.69 106.96 792.58 106.57 793.08 106.12 793.53 105.25 794.14 105.2 795.13 105.56 796 105.6 797.02 105.1 798.23 105.46 799 105.37 798.86 106.58 798.43 106.66 797.8 107.36 797 107.85 795.55 107.91 794.46 108.65 793.38 108.57 792.16 109.09 792.1 109.71 791.41 110.67 790.59 110.52 790 113.09 789.97 113.74 789.28 114.2 789.44 114.91 788.61 115.37 787.23 114.93 784.99 115.08 782.8 115.41 781.96 115.94 781.22 115.71 779.43 116.41 778.73 117.13 777.9 117.46 777.27 117.28 776.81 116.77 775.94 117.04 774.84 118.1 774.67 119.04 774.95 120.09 774.3 120.27 773.92 120.77 773.88 121.75 772.99 122.04 772.6 122.48 771.94 122.57 771.66 123.99 770.69 124.25 769.93 124.83 769.49 124.87 768.31 124.43 766.79 124.68 765.8 123.88 765.3 123.19 765.09 122.44 765.73 121.62 764.62 121.14 763.2 121.4 761.98 122.81 761.34 124.11 761.14 124.93 762.05 126.06 763.33 126.88 762.96 127.14 759.51 126.86 758.99 126.53 757.99 126.3 755.23 126.46 754.42 126.27 752.9 126.83 751.67 126.63 749.8 125.81 749.42 125.42 748.88 125.46 748.89 124.62 748.47 123.99 747.83 124.24 746.88 123.71 745.35 123.83 743.59 124.14 741.82 124.71 740.17 125.53 739.11 126.22 738.8 126.19 737.63 126.76 736.11 127.75 733.11 129.95 731.39 131.46 727.68 135.22 727.08 135.74 724.03 138.71 721.88 141.03 719.8 143.64 716.99 147.59 716.12 148.9 714.6 151.72 712.88 155.47 712.29 156.99 712.28 157.87 711.86 159.01 711.79 159.75 712.21 160.72 712.23 161.44 712.74 161.78 712.7 162.86 712.31 163.93 712.09 165.59 712.31 165.79 711.8 167.5 711.86 169.05 711.32 169.27 711 170.07 710.64 170.26 710.08 171.17 709.63 172.61 709.47 174.77 708.57 173.57 707.93 173.3 706.77 172.1 706.62 171.39 705.79 170.07 704.42 168.98 702.2 167.75 701.42 167.49 700.68 166.62 700.34 166.52 699.8 165.71 697.91 165.08 696.79 165.04 695.82 164.74 694.67 164.66 693.12 163.7 692.72 163.1 691.82 162.97 691.34 162.6 689.63 162.29 688.33 161.01 686.56 159.86 685 159.41 683.9 158.74 682.81 158.39 681.71 157 680.37 156.75 679.1 156.01 678.66 155.47 677.81 155.05 675.82 153.55 674.69 152.14 673.36 150.95 672.97 150.23 671.49 149.45 670.39 149.21 668.77 149.05 668.62 148.77 667.15 148.48 666.45 147.48 665.63 147.08 664.59 145.9 663.32 145.03 662.63 144.05 661.65 143.47 659.52 142.47 657.3 141.92 654.72 141.54 653.03 141.54 649.98 142.3 648.56 142.81 645.83 144.18 643.47 145.71 641.07 147.59 638.49 149.85 637.86 149.96 636.79 150.47 634.47 152.64 633.08 154.45 631.89 155.86 631.13 157.11 630.01 156.46 629.25 156.2 628.82 155.47 629.52 154.93 629.89 155.47 630.69 155.89 630.43 154.86 630.56 154.46 628.98 154.11 628.1 153.55 627.75 151.53 626.75 149.59 625.61 149.13 624.32 147.77 623.64 147.58 623.33 146.74 623.45 146.17 622.73 145.2 620.79 143.64 618.77 143.64 616.71 144.54 616.18 144.37 615.09 143.56 614.4 143.48 613.57 143.74 612.98 143.52 612.37 143.9 610.7 145.68 609.3 147.62 608.52 149.01 607.35 151.53 606.56 153.81 606.15 155.47 605.99 156.66 605.99 158.05 606.34 159.41 607.05 160.07 608.22 160.62 609.73 160.77 610.58 161.72 612.5 163.45 613.68 164.31 614.34 165.23 615.39 165.89 616.54 166.2 618.04 165.8 619.35 165.23 620.43 165.34 621.01 164.77 622.06 165.51 622.87 165.82 623.35 167.24 624.05 167.75 624.98 169.61 625.98 170.52 627.01 171.03 628.03 172.04 628.23 172.66 629.47 174.4 629.8 175.16 631.64 176.27 632.32 176.22 633.63 176.57 635.05 177.2 635.32 177.58 636.41 178.09 636.37 179.18 637.66 179.91 637.74 180.58 636.75 181.35 635.16 181.31 634.14 182.55 633.84 183.38 633.16 183.67 632.31 184.46 631.81 184.3 630.11 184.86 629.54 184.56 628.82 183.62 626.24 182.53 625.56 182.56 624.19 181.98 623.37 181.84 621.93 182.22 621.39 183.23 620.83 183.43 620.52 182.4 620.86 181.8 621.61 182 621.72 181.22 621.4 180.51 620.86 179.94 619.52 179.61 618.19 180.27 617.74 182.05 617.44 182.41 617.34 183.35 616.66 183.58 615.06 184.84 614.72 185.32 613.68 185.33 612.33 185.54 611.57 186.77 611.31 190.67 611.38 191.78 611.65 192.15 611.33 193.03 610.5 193.78 609.06 193.95 608.15 194.33 607.15 194.97 605.38 195.56 604.57 197.44 604.17 197.93 603.89 198.83 603.3 199.43 602.77 199.25 601.4 198 600.9 197.92 599.02 198.22 597.33 196.45 597.37 196.07 596.89 195.18 596.93 194.77 596.23 192.77 595.93 192.31 595.75 190.76 595.78 189.73 596.4 187.64 596.65 185.77 598.5 182.89 598.86 181.94 598.97 180.31 600.26 180.31 600.59 179.67 600.75 178.08 601.24 174.96 600.79 172.88 600.52 171.11 600.02 170.99 599.83 169.96 598.93 168.74 598.21 167.24 597.25 165.99 596 165.26 593.82 165.08 593.62 164.92 592.78 163.18 592.7 162.65 592.21 162.23 592.19 161.55 591.6 161 591.26 161.09 589.79 160.51 589.25 160.43 588.5 158.99 588.8 158.02 588.2 156.66 588.72 154.65 589.37 154.34 590.37 152.78 590.81 151.53 591.19 149.49 590.86 147.77 590.99 146.44 590.7 145.73 590.18 143.23 590.17 142.35 590.82 141.74 591.32 140.64 591.88 139.87 592.74 139.23 593.74 138.78 595.94 138.6 596.44 138.86 597.94 138.51 598.6 137.92 598.83 137.01 599.62 136.53 601.29 135.74 601.94 133.77 602.84 132.29 603.49 133.01 604.21 133.27 604.63 133.8 604.95 134.99 606.14 134.92 607 134.52 607.13 133.57 607.01 132.14 608.34 130.84 609.49 128.93 610 127.81 610.83 126.79 614.56 124.39 614.78 123.83 614.79 122.61 614.21 122.35 613.32 120.38 612.55 119.85 612.37 118.94 611.16 117.12 608.92 115.34 607.72 113.39 607.96 112.3 607.92 111.51 608.23 111.25 608.9 108.88 608.61 108.05 609.56 108.17 610.51 107.9 611.16 108.21 612.4 107.42 612.6 106.08 613.12 105.96 614.02 106.35 616.6 109.09 617.52 109.79 618.34 109.84 618.7 111.21 620.63 111.96 621.4 112 622 112.63 622.82 113.13 623.45 113.18 623.43 114.23 623.97 114.65 624.77 114.68 625.95 114.46 626.54 113.64 626.86 114.12 628.23 113.86 628.68 113.09 629.48 113.07 630.62 112.52 631.82 112.53 631.77 113.74 631.32 114.06 631.6 114.68 632.31 115.23 633.12 115.36 634.75 115.95 635.68 116.56 636.87 117.07 637.58 116.81 639.36 115.87 640.82 114.88 641.76 114.01 643.55 111.88 645.43 109.22 646.02 108.25 646.2 106.76 646.11 106.08 646.3 105.33 646.19 103.88 645.11 101.52 644.26 100.27 643.74 99.09 643.88 98.08 644.34 97.24 644.71 95.85 644.61 94.99 643.97 94.28 643.5 93.04 643.42 91.85 643.05 90.99 642.75 89.17 644.18 86.58 644.2 85.98 644.77 85.21 645.55 84.84 647.19 83.8 647.84 83.89 648.56 83.69 649 82.9 649.43 82.65 650.19 82.91 650.85 82.65 652.18 81.28 652.46 80.52 653.28 79.27 653.32 78.17 653.67 77.98 653.97 76.12 654.34 75.04 654.34 71.67 654.05 68.3 654.2 68.18 654.19 64.23 653.9 61.72 653.87 60.55 654.77 59.95 655.48 57.91 655.91 57.46 656.02 56.77 657.01 55.43 657.66 53.59 657.91 51.35 657.89 49.83 658.03 48.83 658.45 48.27 658.71 47.28 658.88 44.47 658.86 43.19 658.4 39.09 657.88 36.36 657.3 33.85 656.48 30.89 654.99 26.79 654.4 25.35 651.66 19.01 651.1 17.09 651.18 15.3 652.6 13.22 652.9 12.27 652.79 11.67 653.76 10.29 654.08 9.61 654.2 8.71 653.49 7.53 653.41 6.12 653.76 4.61 654.46 5.29 654.97 6.23 654.95 6.62 656.7 7.18 657.63 6.72 658.14 6.88 659.01 6.76 660.28 6.15 661.17 5.4 661.91 4.03 661.75 3.4 661.94 2.37 662.56 1.57 663.9 1 Z M 630.11 3.92 631.13 5.29 632.05 5.36 633.04 4.68 633.6 5.94 633.22 6.76 633.33 9.38 632.99 10.02 633.23 11.2 632.82 12.09 632.77 13.33 632.12 13.32 632.05 11.59 631.47 10.85 631.13 9.12 630.65 7.91 630.91 7.79 630.67 6.34 631.02 5.77 630.16 4.46 630.11 3.92 Z M 638.18 14.08 638.76 14.42 639.44 15.34 640.04 15.26 641.52 15.98 641.99 16.54 642.57 17.83 642.72 19.55 641.53 20.74 641.27 21.41 640.02 21.75 639.59 22.08 638.43 21.3 638.04 20.79 637.09 20.16 636.18 18.87 636 18.1 636.22 17.31 635.89 16.39 636.67 15.34 638.18 14.08 Z M 580.94 159.41 581 160.55 580.49 161.7 579.8 162.34 579.5 162.99 579.66 164.01 579.58 164.79 579.01 166.78 578.25 167.88 576.94 168.3 576.17 167.94 576.29 167.07 576.06 166.02 576.21 164.91 575.6 163.56 575.64 162.92 576.6 161.2 577.76 161.08 578.17 160.82 580.6 160.09 580.94 159.41 Z" fill="#ff8585" id="hepco"/>
<path d="M 624.03 403.73 623.07 403.6 622.21 403.04 621.19 403.08 620.6 402.49 617.85 401.82 617.05 400.76 616.8 399.99 616.16 400.34 616.14 401.37 616.6 401.78 617.02 402.8 616.6 403.41 615.44 403.78 614.8 404.2 614.38 405.12 613.43 405.78 613.04 406.44 612.52 406.69 611.64 405.39 611.15 405.43 610.83 404.94 609.51 404.69 609.01 402.62 607.7 402.29 607.43 401.41 606.6 400.58 605.9 400.64 604.82 400.08 605.15 399.24 605.05 398.36 604.74 397.58 605.12 397.22 605.03 396.47 603.48 396.56 603.11 394.81 602.39 394.5 601.14 392.95 600.89 393.07 599.85 392.25 598.56 392.04 597.14 391.35 596.06 391.35 594.76 390.83 593.43 391.15 592.76 390.89 591.68 391.16 590.44 391.82 589.93 392.44 590.08 393.82 588.99 393.66 588.39 393.82 587.71 394.5 586.56 394.51 585.91 394.98 584.94 395.08 584.64 395.83 583.73 396.2 583.31 396.14 583.04 396.85 582.28 397.08 580.58 397.9 578.7 399 578.36 398.7 577.49 398.93 577.24 399.76 576.65 400.12 576.39 400.88 575.74 400.79 575.17 401.49 574.42 401.18 573.83 401.26 573.1 400.9 572.07 400.84 570.74 400.18 569.87 400.67 569.41 399.29 568.61 399.52 567.74 399.16 567.7 397.99 567.37 397.51 566.66 397.16 566.04 396.44 565.8 395.7 564.82 395.04 564.6 395.7 564.59 396.75 564.26 397.18 563.32 397.68 563.08 398.15 561.97 398.13 561.4 398.51 560.38 398.42 560.21 399.54 560.31 400.67 560.63 401.11 560.7 402.36 559.07 402.25 558.56 403.3 558.52 404.11 558.94 404.92 557.31 405.21 556.37 405.81 555.22 405.59 555.5 406.56 555.37 407.58 554.27 408.23 554.09 408.73 553.32 408.66 552.61 408.15 551.89 407.92 551.39 409 550.82 409.02 550.55 407.82 550 407.62 550.82 406.02 550.27 405.36 550.57 404.97 550.74 404.06 550.22 403.42 549.47 403.34 548.41 402.76 547.98 401.63 547.38 401.67 546.92 400.75 547 398.17 546.7 397.84 546.28 396.67 545.37 396.7 544.86 396.28 543.71 396.7 542.47 396.74 541.73 397.27 540.32 397.73 539.25 399.62 539.03 400.48 538.51 401.06 537.66 400.88 536.95 401.41 536.67 402.06 536.98 402.53 536.63 403.26 536.87 403.88 536.12 404.55 535.91 403.72 534.02 403.38 533.41 403.95 532.33 404.39 530.56 404.14 529.82 404.56 529.12 405.54 528.97 406.12 528.18 405.92 526.66 405.17 527.19 404.52 527.13 403.68 527.64 402.93 527.65 402.42 527.02 401.81 526.25 401.52 524.77 401.44 523.81 401.11 522.88 401.52 521.85 401.33 522.05 401.87 521.72 402.31 522.23 403.41 521.57 404.09 521.46 404.54 520.71 405.45 520.26 406.37 519.34 406.91 518.97 407.47 518.25 407.81 517.82 407.24 517.95 406.56 517.25 405.02 517.23 403.29 516.54 402.35 516.76 400.83 516.46 400.03 515.58 400.04 514.94 399.78 513.8 398.47 514.5 398.34 517.15 397.47 517.93 397.05 519.91 396.29 520.68 395.82 523.37 394.99 524.43 394.31 524.8 393.82 525.44 393.58 526.74 392.57 527.2 392.6 528.31 391.91 528.61 391.42 530.09 389.98 531.74 390.52 532.57 390.47 533.29 390.18 534.43 390.07 536.88 388.35 539.52 385.86 541.69 383.61 543.77 382.21 545.24 381.61 545.87 381.04 547.01 379.21 548.07 376.9 549.39 374.82 550.23 373.95 551.4 373.14 552.11 371.73 552.61 371.12 553.34 369.19 553.9 367.03 553.93 366.16 555.18 362.7 556.74 360.85 557.69 360.1 561.33 357.77 564.02 355.76 566.79 355.02 569.49 353.86 571.13 352.58 572.39 351.43 574.42 348.93 575.76 346.85 576.36 345.76 576.37 344.85 577.16 343.02 576.82 342.72 577.07 341.57 577.23 338.69 577.17 337.64 577.49 336.72 577.41 336.01 578.34 333.84 578.78 333.32 579.28 331.91 580.5 329.74 580.45 328.8 580.91 328 581.13 327.16 582.21 325.18 582.23 324.84 582.89 323.6 584.05 322.76 584.87 321.6 585.8 321.13 586.26 320.1 587.5 319.09 588.62 316.36 589.97 311.61 589.86 311.24 590.27 310.14 590.77 309.68 591.87 305.95 592.1 304.33 591.81 304.03 592.3 303.05 593.05 300.54 592.66 299.44 593.36 297.84 593.24 297.15 593.82 296.06 595.21 295.69 596.23 293.62 597.23 290.13 597.99 285.89 598.39 282.59 598.54 278.8 598.33 276.03 597.95 275.18 598.06 274.09 596.87 271.24 596.23 270.31 595.21 269.25 593.58 268.3 592.75 268.22 591.66 268.44 591.04 269.13 591.11 270.01 590.43 269.74 589.76 270.27 589.25 269.85 588.08 270.03 587.36 269.78 587.1 268.15 586.54 267.91 586.18 267.29 585.96 265.59 585.69 264.72 585.74 263.85 586.08 263.66 586.69 264.61 587.03 264.54 588.15 264.92 589.29 265.75 590.82 265.17 591.87 264.31 593.36 262.41 594.43 260.45 595.39 258.08 596.11 255.54 595.79 255.42 596.44 254.13 596.88 251.68 597.23 248.97 597.18 247.57 596.72 246.67 595.64 246.06 595.66 245.69 594.53 244.89 594.12 244.21 594.56 241.28 594.53 240.13 594.3 238.67 593.8 237.38 593.46 236.98 591.87 237.12 591.47 236.19 591.54 235.58 592.48 234.92 592.97 234.2 593.67 234.3 594.12 233.44 595.06 232.56 595.26 231.91 595.9 231.05 596.13 230.19 596.5 229.72 597.21 229.42 598.16 228.56 599.5 229.14 599.6 229.48 600.59 229.79 601.39 229.33 603.13 227.88 604.02 228.08 605.07 227.09 605.84 225.46 606.19 224.44 606.89 221.73 607.46 217.9 607.62 215.79 607.57 213.9 607.02 212.95 606.32 212.29 605.04 212.16 605.08 211.7 606.03 211.45 606.82 211.85 607.2 211.59 607.73 210.68 608.06 209.03 607.84 207.66 608.22 206.77 608.18 205.84 609.37 206.41 610.17 207.02 610.42 207.62 611.15 208.21 611.37 208.74 612.56 209.45 613.68 209.14 615.52 207.3 617.38 207.93 617.83 208.66 618.72 209.53 618.77 210.05 618.46 211.74 618.4 213.12 618.5 214.34 618.86 215.68 618.92 216.52 619.39 220.27 619.96 222.92 620.67 224.54 622.02 225.72 624.09 225.46 624.95 224.66 625.45 223.84 625.91 223.67 626.56 222.31 626.61 220.69 625.64 220.05 626.4 219.88 626.36 219.21 627.32 217.42 627.9 217.56 628.34 218.11 629.42 218.22 629.86 219.06 630.67 219.72 630.34 220.96 631.18 220.83 631.96 221.11 632.69 221.82 633.48 221.89 634.18 223.15 634.9 223.79 635.72 223.82 636.93 222.97 638.18 221.1 638.95 219.21 639.36 217.76 639.68 215.64 639.68 214.17 639.85 213.02 640.29 212.06 640.73 211.65 640.95 210.73 640.57 209 639.85 207.44 639.02 206.18 637.78 205.04 636.75 205.06 635.92 206.76 636.26 207.02 635.26 207.96 634.81 207.98 633.8 208.65 633.19 209.42 632.44 209.31 631.83 208.87 630.6 208.66 630.2 208.87 629.36 209.83 628.14 209.79 627.49 210.3 626.75 210.21 625.18 211.13 624.68 211.96 623.73 211.81 623.09 211.16 623.17 210.01 623.02 208.95 623.51 208.29 623.74 207.11 623.69 206.11 624.08 204.99 624.49 203.32 624.24 202.93 624.92 201.97 625.22 200.04 625.61 198.41 625.99 198.23 626.58 197.21 627.04 196.79 627.64 195.81 628.07 194.55 627.69 193.62 628.19 192.52 628.57 193.02 629.89 194 630.27 194.66 631.34 195.34 633.61 195.52 634.55 196.2 635.17 196.4 635.49 197.09 636.29 197.85 636.63 198.44 637.31 198.99 637.97 199.93 638.56 200.4 639.83 201.11 641.61 201.63 642.71 201.44 645.11 200.24 646.4 199.02 647.33 197.88 647.6 198.45 647.25 200.32 646.87 200.83 646.45 202.31 645.52 206.18 644.86 210.05 644.96 213.1 644.69 217.76 644.75 220.58 644.88 221.17 644.96 223.12 645.21 225.46 645.74 229.3 646.27 232.29 646.5 232.78 646.87 234.41 647.75 237.04 648.74 238.78 649.65 239.6 650.51 239.6 650.94 238.97 651.56 239.19 651.65 239.69 652.56 240.37 653.28 241.18 653.87 242.24 655.07 243.19 655.77 244.35 656.44 245.11 656.66 245.94 657.55 246.93 658.27 249.03 659.73 251.45 660.34 253.75 659.85 253.69 659.18 254.33 659.33 255.42 660.34 255.65 661.26 256.3 661.82 257.22 661.65 257.63 660.65 257.83 660.09 259.21 660.34 260.4 660.95 261.26 661.79 261.54 662.97 263.32 663.76 263.32 664.55 264.46 664.63 265.71 663.99 266.86 664.57 268.66 665.16 269.13 665.39 269.88 665.25 270.69 665.81 271.96 665.58 273.37 666.01 273.88 665.73 274.71 665.61 275.84 665.66 276.95 665.21 277.33 665.04 277.97 665.65 278.22 665.17 279.14 665.55 279.82 664.91 280.16 665.12 280.78 664.87 281.42 664.23 282.01 664.7 282.59 665.31 281.42 665.57 281.3 666.73 279.48 667.09 280.2 666.95 280.61 667.25 283.13 668.16 283.17 668.54 283.74 668.44 284.95 667.3 285.17 667.13 286.04 665.89 287.23 664.63 287.6 664.67 288.4 665.2 289.15 666.24 288.54 666.45 288.09 667.43 287.25 667.89 287.36 668.16 288.08 667.55 288.88 667.67 289.87 667.17 290.29 666.48 289.84 666.33 290.49 665.5 290.59 665.17 290.15 664.02 291.61 664.29 292.29 664.9 292.42 664.52 293.09 664.06 293.32 663.31 293.03 662.62 294 663.08 294.43 663.46 294.02 664.19 294.19 664.74 293.68 665.5 293.89 665.13 294.91 664.32 294.81 663.96 295.14 663 295.3 662.81 295.86 663.43 296.4 663.22 296.81 662.28 296.7 662.67 297.42 663.46 298.3 664.21 297.89 664.42 298.84 663.72 299.08 662.32 300.12 662.02 300.65 663.18 300.64 663.23 301.21 662.12 302.04 660.73 302.05 660.46 302.46 661.65 303.14 661.71 303.77 662.58 303.65 663.16 304.19 662.08 304.98 661.19 304.34 660.39 304.34 659.74 303.87 659.52 304.44 660 305.15 661.72 306.11 661.38 306.37 660.57 306.31 659.75 306.76 660.83 307.29 660.74 307.85 659.09 307.86 659.05 307.32 657.85 308.13 657.24 307.9 656.83 306.64 656.01 307.93 656.77 308.43 657.19 309.36 656.17 309.63 655.57 310.4 656.48 310.66 656.67 311.15 655.57 311.41 655.14 310.43 654.59 310.12 654.51 308.76 653.66 308.72 653.04 308.99 653.11 309.9 653.68 311 653.71 312.3 654.02 312.63 653.97 313.35 654.32 313.66 654.59 315.26 653.98 314.91 653.47 313.84 652.94 313.82 652.37 314.41 651.96 313.95 651.58 315.66 651.88 316.97 651.4 317.44 650.67 317.52 650.63 317.92 649.45 318.48 649.26 319.25 650.3 320.67 650.75 320.79 650.59 322.09 649.51 322.23 649.27 322.88 648.35 322.92 648.06 323.6 646.76 323.64 646.95 324.35 647.41 324.81 649.03 325.28 649.7 325.27 649.55 326.47 648.24 327.66 647.3 327.86 647.55 328.67 648.24 328.98 648.18 329.51 648.6 329.96 649.22 329.41 650.3 330.39 649.91 330.96 649.75 331.91 649.26 331.72 649.16 330.81 648.16 330.95 648.56 332.45 647.86 333.01 648.54 333.34 648.56 334.06 648.07 334.21 646.89 333.81 647.82 334.98 647.72 336.12 648.73 335.58 649.17 336.18 650 335.81 650.1 336.28 649.04 336.27 648.07 336.89 649.35 337.34 649.85 338.47 649.66 339.28 650.1 339.56 650 340.24 649.62 340.48 649.53 341.55 649.09 341.36 648.97 340.38 648.36 339.92 647.56 340.02 647.26 339.3 647.45 338.58 646 338.31 646.54 336.68 645.59 336 644.77 336.5 644.01 336.31 644.11 335.54 643.76 335.25 642.57 335.33 641.62 335.21 639.91 335.6 638.47 336.22 636.83 337.4 637.13 338.69 636.45 338.39 635.85 337.55 635.88 336.87 634.21 336.69 633.42 337.21 633.29 338.16 632.72 339.26 632.82 339.73 633.91 339.42 633.84 340.52 633.46 341.09 632.28 341.39 630.76 343.97 630.03 345.42 629.2 347.77 628.72 349.78 628.29 353.48 628.28 354.44 628.55 357.17 629.01 359.26 629.47 360.02 629.82 361.07 630.76 361.41 630.9 363.82 631.58 364.91 631.67 367.45 632.08 369.26 632.04 370.23 632.25 373.57 632.69 376.52 632.53 377.16 632.44 380.7 632.59 381.67 632.17 382.88 632.21 383.75 631.68 386.53 631.97 387.33 631.45 388.31 631.26 389.57 631.21 392.76 630.91 393.07 630.5 394.34 630.3 395.94 630.35 397.04 630.6 397.75 630.16 398.74 629.16 399.58 628.47 400.48 627.61 400.08 626.66 400.6 625.68 401.58 624.88 401.59 624.3 402.24 623.93 403.03 624.03 403.73 Z M 544.5 338.86 544.3 340.6 544.31 341.72 543.77 343.71 543.74 344.58 542.26 347.08 541.75 348.46 541.69 349.36 541.89 350.14 543.36 350.85 543.7 350.54 544.8 350.41 546.1 349.78 546.51 350.11 546.48 350.75 545.93 352.13 545.62 353.26 544.79 354.48 544.14 356 544 357.13 543.63 357.17 542.75 358.32 541.54 358.88 539.91 360.46 539.23 360.99 538.46 361.3 537.21 361.27 535.09 362.34 534.13 362 533.73 361.23 534.79 360.7 535.77 360.51 536.39 359.48 536.64 358.17 536.27 357.77 536.49 357.17 537.35 356.18 538.05 355.81 538.51 355.2 538.42 354.59 537.9 353.88 537.06 353.31 536.12 353.48 535.43 355.17 534.81 354.87 534.7 353.2 534.28 352.63 534.9 352.28 534.67 350.92 535.16 350.26 535 349.74 535.62 349.32 536.37 347.8 537.09 346.86 537.92 345.02 538.61 344.68 539.52 343.86 540.47 342.75 541.46 342.34 541.87 341.84 541.92 340.9 542.37 339.94 543.48 338.92 544.5 338.86 Z" fill="#ff9148" id="tohoku-epco"/>
<path d="M 624.03 403.73 624.47 404.97 623.22 405.47 622.4 407.18 621.85 408.85 621.78 409.68 621.35 411.01 621.34 412.33 620.56 413.12 620.39 414.11 619.6 415.28 618.84 417.16 618.24 419.39 617.66 420.56 617.59 423.14 617.78 424.14 618.21 424.54 618.04 425.37 617.13 426.52 616.84 427.53 616.18 427.69 615.86 428.42 615.89 430.38 616.3 433.05 616.79 434.86 617.63 437.29 619.27 441.2 619.84 442.37 620.1 442.27 621.08 444.47 622.22 446.43 622.3 446.84 623.39 448.64 625.37 451.66 625.87 452.08 626.5 452.13 626.73 453.15 626.47 453.8 625.71 453.79 625.33 453.35 624.64 453.41 622.06 454.31 621.01 453.84 619.2 454.44 618.14 455.12 615.86 457.03 613.68 459.18 612.33 461.01 611.36 462.6 610.69 464.16 610.2 466.01 610 467.79 610.12 469.53 610.81 470.79 610.34 472.16 610.5 473.63 610.07 475.23 609.51 476.17 608.6 476.16 607.99 476.86 607.72 477.91 606.77 477.46 606.22 478.21 605.03 478.16 604.93 478.52 603.38 479.21 603.15 478.87 602.22 478.63 601.59 478.91 601.09 478.71 600.19 479.29 599.85 480.07 599.89 480.6 599.12 480.98 598.92 481.49 598.29 481.41 597.67 481.7 596.23 482.78 595.68 483.41 594.98 485.25 595.09 486.31 594.07 487.55 593.46 487.86 591.87 488.04 590.75 487.97 590.21 487.67 590.2 486.75 589.76 486.31 587.78 485.44 587.75 484.83 588.81 485.02 589.99 484.85 590.37 484.29 591.28 484.33 591.34 483.26 590.18 482.31 590.48 481.72 590.06 481.07 590.82 480.16 590.23 479.06 590.66 478.12 589.99 477.28 589.99 475.92 590.42 475.26 591.68 474.53 591.79 473.87 591.53 472.95 590.99 472.3 591.2 471.77 590.82 471.33 590.01 470.93 589.93 470.07 590.71 469.65 590.16 469.19 590.69 468.56 590.94 467.89 592.23 468.46 592.85 467.99 593.08 467.26 592.76 466.42 593.02 465.44 594.24 464.92 595.14 463.88 595.96 463.81 596.69 463.43 597.21 462.45 598.48 460.65 599.76 460.17 599.34 459.55 599.27 458.38 596.81 455.76 596.4 455.41 595.85 455.49 595.75 454.73 595.06 454.73 594.71 455.15 594 455.36 593.48 455.85 594.23 456.46 592.76 457.52 591.9 457.14 591.9 456.57 590.56 456.34 589.59 456.49 589.3 457.29 588.41 456.26 587.78 456.56 587.51 458.57 587.82 459.55 588.85 459.51 589.65 460.88 589.17 461.16 589.03 462.2 588.17 461.95 585.23 463.46 583.94 463.55 583.71 464.01 583.95 464.63 584.48 465.05 585.54 465.13 585.15 466.35 584.81 466.69 584.21 466.26 583.96 466.69 584.24 467.36 583.96 467.76 584.37 469.31 583.57 469.53 584.18 470.17 583.8 470.95 584.11 471.59 584.64 471.39 585.76 472.6 587.39 472.83 586.82 473.67 586.74 474.85 585.35 475.08 584.35 475.99 584.62 477.13 585.21 477.65 582.91 477.96 582.62 477.31 583.01 476.81 582.93 475.79 582.54 475.22 583.18 475.04 583.14 474.51 582.55 474.38 582.38 473.74 581.72 473.09 581.25 471.74 580.45 470.74 579.77 471.01 578.49 470.75 577.75 470.44 576.73 470.28 572.95 470.56 572.41 470.83 570.05 471.44 568.8 472.03 567.4 473.09 566.45 473.96 566.23 476.26 566.5 477.43 565.69 477.5 565.22 478.37 564.56 479.03 564.04 479.93 564.21 480.94 563.84 481.46 564.02 481.9 564.91 481.93 564.87 483.57 564.36 483.75 564.78 484.93 565.89 485.21 566.13 485.95 566.54 485.88 566.57 486.88 566.05 488.31 566.03 489.04 565.02 489.45 564.15 490.58 564.15 491.58 563.64 492.33 563.47 493.05 562.45 493.77 562.17 494.32 561.65 494.42 561.18 495.9 560.69 496.28 560.51 497.04 560.88 497.99 560.69 498.6 559.94 498.6 559.96 497.64 559.22 498.37 558.62 498.63 558.12 499.66 556.29 500.38 555.98 500.84 554.25 499.93 554.08 499.23 553.53 498.56 554.16 498.26 552.98 497.03 552.34 497.07 552.42 495.68 552.94 494.77 553.57 494.39 553.3 493.18 552.81 492.41 552.8 491.43 553.22 491.08 552.92 488.81 553.34 488.28 554.1 487.81 553.33 486.05 553.18 484.94 553.72 483.88 553.99 482.86 554.84 483.07 555.2 482.86 556.04 483.3 557.35 482.84 557.5 481.91 556.97 480.87 556.34 480.47 556.04 479.86 555.43 479.33 554.25 478.74 552.8 478.3 550.88 478.06 548.85 478.99 548.52 478.19 548.02 476.25 547.56 475.68 546.67 475.53 546.06 475.99 545.34 474.46 545.14 475.29 544.56 475.5 543.7 476.7 543.21 476.33 541.51 476.13 541.16 475.44 540.46 475.34 540.01 473.43 539.36 472.28 539.53 471.12 539.06 470.34 538.64 470.38 538 469.91 536.9 470.38 536.5 470.89 535.49 470.29 535.23 469.73 535.5 469.43 535.31 468.41 534.67 468.06 535.16 466.81 535.51 466.51 535.46 464.91 535.06 464.42 535.51 463.58 535.62 462.32 535.89 461.86 535.55 461.24 535.59 460.29 535.1 459.89 534.89 458.81 534.93 458.04 534.52 457.16 534.63 456.56 534.17 456.33 533.34 455.17 533.31 454.16 532.84 453.4 534.77 451.47 533.73 450.38 533.01 449.86 534.4 447.2 534.85 446.1 535.21 445.94 536.22 446.97 536.73 446.77 538.46 444.24 538.58 443.56 539.46 442.26 539.9 442.3 541.91 443.07 542.38 443.65 542.06 444.54 542.4 445.32 543.65 445.49 543.81 444.84 544.31 444.39 545 444.7 545.87 444.51 546.65 444.84 547.15 444.49 547.88 444.94 547.69 445.56 547.84 446.44 548.67 446.62 549.43 446.37 550.14 446.63 550.46 445.61 551.24 444.94 551.97 444.94 552.32 443.67 551.4 442.33 551.41 441.66 550.57 441.38 550.3 440.56 549.66 440.52 548.58 439.8 549.01 438.84 548.66 437.58 548.55 437.09 549.09 436.33 548.68 435.25 547.41 435.06 547.04 434.09 546.69 433.76 547.1 433.42 547.77 433.95 548.24 433.62 548.77 433.49 548.28 432.51 548.68 432.14 547.91 431.12 547.58 430.31 547.49 428.99 548.87 428.34 549.35 427.92 549.3 425.45 549.16 423.4 548.68 422.95 547.2 422.66 545.93 422.94 545.15 423.63 544.23 423.11 543.63 423.66 542.6 423.52 542.49 422.87 540.54 422.22 540.62 421.47 540.52 420.23 540.63 418.48 541.5 416.97 541.22 416.04 541.46 415.21 542.37 414.46 542.52 413.59 543.04 413.16 543.57 413.23 544.87 412.81 545.19 412.15 544.65 411.75 544.68 411.18 545.51 410.52 546.4 410.44 546.57 410.37 547.33 410.05 547.64 410.29 548.24 409.8 550.82 409.02 551.39 409 551.89 407.92 552.61 408.15 553.32 408.66 554.09 408.73 554.27 408.23 555.37 407.58 555.5 406.56 555.22 405.59 556.37 405.81 557.31 405.21 558.94 404.92 558.52 404.11 558.56 403.3 559.07 402.25 560.7 402.36 560.63 401.11 560.31 400.67 560.21 399.54 560.38 398.42 561.4 398.51 561.97 398.13 563.08 398.15 563.32 397.68 564.26 397.18 564.59 396.75 564.6 395.7 564.82 395.04 565.8 395.7 566.04 396.44 566.66 397.16 567.37 397.51 567.7 397.99 567.74 399.16 568.61 399.52 569.41 399.29 569.87 400.67 570.74 400.18 572.07 400.84 573.1 400.9 573.83 401.26 574.42 401.18 575.17 401.49 575.74 400.79 576.39 400.88 576.65 400.12 577.24 399.76 577.49 398.93 578.36 398.7 578.7 399 580.58 397.9 582.28 397.08 583.04 396.85 583.31 396.14 583.73 396.2 584.64 395.83 584.94 395.08 585.91 394.98 586.56 394.51 587.71 394.5 588.39 393.82 588.99 393.66 590.08 393.82 589.93 392.44 590.44 391.82 591.68 391.16 592.76 390.89 593.43 391.15 594.76 390.83 596.06 391.35 597.14 391.35 598.56 392.04 599.85 392.25 600.89 393.07 601.14 392.95 602.39 394.5 603.11 394.81 603.48 396.56 605.03 396.47 605.12 397.22 604.74 397.58 605.05 398.36 605.15 399.24 604.82 400.08 605.9 400.64 606.6 400.58 607.43 401.41 607.7 402.29 609.01 402.62 609.51 404.69 610.83 404.94 611.15 405.43 611.64 405.39 612.52 406.69 613.04 406.44 613.43 405.78 614.38 405.12 614.8 404.2 615.44 403.78 616.6 403.41 617.02 402.8 616.6 401.78 616.14 401.37 616.16 400.34 616.8 399.99 617.05 400.76 617.85 401.82 620.6 402.49 621.19 403.08 622.21 403.04 623.07 403.6 624.03 403.73 Z M 574.01 492.45 575.02 492.87 575.82 492.95 576.6 493.66 577.04 494.71 577.12 496.7 576.75 497.56 575.29 497.35 574.42 496.69 573.75 495.89 573.85 495.25 573.62 493.9 573.67 493.08 574.01 492.45 Z M 571.16 508.05 571.57 508.33 571.59 509 571.13 509.83 571.09 511.49 570.94 512.32 569.98 511.57 569.91 510.95 570.34 510.05 570.36 509.36 571.16 508.05 Z M 566.38 515.97 567.36 516.46 567.52 517.17 566.81 517.72 566.08 517.65 565.92 516.88 566.38 515.97 Z M 579.59 521 580.24 521.02 581.15 521.93 581.06 523.34 579.92 524.28 578.97 524.32 578.27 524.08 577.95 523.01 578.67 521.89 578.82 521.12 579.59 521 Z M 582.39 530.41 583.14 530.96 583.5 531.71 583.11 532.46 582.17 532.36 581.6 532.02 581.59 531.26 582.39 530.41 Z M 587.88 561.46 588.36 561.5 590.03 563.09 590.97 563.24 591.34 563.95 591.38 564.82 590.77 564.95 589.97 565.63 589.29 565.5 588.69 565.06 588.55 564.03 587.78 563.73 587.26 562.64 587.24 562.02 587.88 561.46 Z" fill="#fffb91" id="tepco"/>
<path d="M 513.8 398.47 514.94 399.78 515.58 400.04 516.46 400.03 516.76 400.83 516.54 402.35 517.23 403.29 517.25 405.02 517.95 406.56 517.82 407.24 518.25 407.81 517.89 408.41 518.1 408.89 517.82 410.5 518.23 412.21 517.87 413.84 517.61 414.27 517.9 415.24 517.71 415.62 516.92 415.63 515.67 416.66 515.59 417.78 516.42 417.82 516.26 418.59 515.01 418.94 514.91 419.64 514.37 420.19 514.52 421.09 513.99 421.71 513.74 422.61 512.86 422.87 512.75 423.56 512.32 424.13 511.2 424.24 510.48 424.05 509.85 424.51 509.06 424.46 508.8 424.8 506.38 425.01 506.23 425.82 505.76 426.14 504.18 426.03 504.25 426.85 504.59 427.73 504.29 428.21 503.42 428.06 503.15 428.61 501.3 428.64 500.88 429.37 500 429.97 499.24 430.02 498.56 429.51 499.34 428.18 499.25 427.63 499.92 427 500.06 426.03 498.67 424.46 497.9 425.16 496.52 424.51 496.01 425.18 494.61 425.46 495.11 424.65 494.39 424.4 493.78 425.15 493.35 426.07 493.46 426.75 492.49 427.32 491.83 428.57 491.17 428.65 490.78 429.17 490.17 428.97 490.67 427.66 489.79 426.06 488.4 425.42 487.55 426.22 487.3 425.88 485.96 426.01 486.14 426.59 485.61 427.92 484.67 427.84 484.38 428.1 485.17 429.51 485.8 429.52 486.46 430.3 485.28 432.35 484.74 432.92 484.62 433.56 483.56 433.92 483.9 435.39 483.07 437.29 483.57 438.55 484.48 438.8 485.14 440.45 485.97 440.97 485.32 442.37 484.44 443.47 484.13 444.28 485.08 444.8 485.27 445.26 485.34 446.12 485.78 447.14 485.58 447.64 484.75 447.75 484.6 448.72 484.29 449.66 483.79 449.66 483.42 449.2 482.81 449.42 481.99 449.28 481.53 449.95 480.2 450 479.02 449.7 478.44 450.16 477.32 449.82 477.17 450.29 476.54 450.53 475.5 450.45 475.01 450.15 474.63 450.79 474.39 451.77 473.64 450.71 473.13 450.8 472.2 450.72 470.87 450.37 470.71 450.11 469.92 449.85 468.85 450.64 468.21 450.71 467.87 451.82 468.12 452.53 468.03 453.22 466.93 454.58 467.17 454.9 466.54 455.72 465.98 455.2 464.84 454.69 463.7 454.39 463.42 453.88 462.62 453.82 461.98 454.03 461.43 455.23 462.02 456.1 462.91 458.39 462.44 459.49 460.67 459.29 460.46 460.09 460.42 461.29 459.64 460.8 459.19 461.38 458.46 461.04 457.66 461.26 457.54 460.06 457.75 459.48 457.65 458.81 456.93 458.49 457.02 456.76 456.67 455.98 457.21 455.36 456.97 452.65 455.68 452.87 455.5 452.64 456.04 452.53 456.51 451.89 457.33 451.2 457.52 451.96 458.05 452.74 458.19 454.01 457.62 454.77 458.22 455.23 458.27 455.72 459 455.72 459.41 455.38 459.6 454.43 459.51 453.74 460.14 452.91 460.24 450.63 459.17 448.57 458.37 447.88 456.71 446.1 456.52 445.57 456.64 443.81 455.3 442.06 455.49 441.12 456.18 440.64 457.13 439.56 457.5 437.93 457.93 436.57 458.38 436.34 458.64 435.48 459.09 435.31 459.93 434.11 461.35 431.78 461.37 431.18 461.05 430.26 461.9 430.01 462.29 430.21 463.59 429.6 464.97 428.59 466.2 427.39 467.19 425.82 467.78 425.75 468.89 425.15 471.25 422.87 473.4 419.96 474.2 419.01 476.79 415.63 477.26 414.84 478.45 413.31 480.32 410.21 482.02 406.78 482.84 404.74 483.5 401.89 483.45 401.11 482.88 400.62 483.3 400.08 483.56 399.19 483.49 397.47 482.69 397.08 482.78 396.29 481.97 395.18 481.8 394.2 482.2 393.31 482.17 392.11 481.91 391.39 481.19 391.06 481.02 391.47 480.35 391.55 480.13 391.09 480.47 388.58 481.19 387.85 481.18 387 481.91 386.37 482.33 385.31 482.05 384.75 482.05 383.27 483.16 382.17 483.14 381.65 484.68 381.14 485.05 380.7 485.7 380.53 486.15 380.06 487.25 379.77 489 380.3 492.23 378.63 492.65 378.64 493.22 378.11 494.12 377.67 494.94 376.63 496.74 375.71 497.84 375.68 499.54 374.92 500.08 374.84 500.75 374.33 501.48 374.48 502.99 374.39 503.68 375 503.9 375.54 503.5 376.28 504.08 377.15 504.22 377.81 503.52 378.27 502.59 378.38 501.75 378.22 500.61 378.69 500.3 379.21 499.93 380.55 500.26 381.99 500.98 382.88 500.26 384.15 499.61 384.63 498.77 384.4 497.68 384.46 497.37 384.26 495.75 384.95 495.1 385.39 494.92 386.35 494.27 386.94 494.04 388.06 492.89 388.59 492.52 389.39 491.89 389.57 491.34 388.86 490.17 388.48 489.6 387.59 488.78 387.93 488.4 388.7 488.57 389.15 487.63 390.4 487.26 391.19 488.15 391.59 487.9 392.73 487.22 392.61 486.96 393.13 487.14 393.73 486.91 394.35 487.51 394.61 488.09 394.46 488.69 393.63 489.61 393.94 489.54 394.64 490.63 395.53 491.34 395.07 491.79 395.1 492.12 393.64 492.7 392.92 493.44 392.94 493.5 394.26 493.27 395.9 493.42 396.67 493.29 397.47 493.62 399.01 492.57 400.27 492.76 400.92 491.79 402.38 491.08 403.16 491.53 404.33 494.01 406.6 495.55 407.74 496.19 407.56 497.92 408.18 499.8 407.84 501.83 408.18 503.18 408 504.1 406.9 505.34 406.06 505.35 405.38 505.99 404.24 505.94 403.67 506.26 402.99 505.94 402.12 506.38 401.11 506.83 400.64 508.98 399.52 511.61 399.19 512.09 398.74 513.8 398.47 Z M 492.89 390.26 493.52 391.06 493.08 391.5 493.39 392.22 493.05 392.48 491.84 392.69 491.53 392.37 490.98 392.9 489.93 393.36 489.27 392.29 488.39 391.77 488.2 390.96 489.07 391.28 489.95 391.3 491.16 391 491.24 391.38 492.45 391.31 492.89 390.26 Z" fill="#008d22" id="rikuden"/>
<path d="M 550.82 409.02 548.24 409.8 547.64 410.29 547.33 410.05 546.57 410.37 546.4 410.44 545.51 410.52 544.68 411.18 544.65 411.75 545.19 412.15 544.87 412.81 543.57 413.23 543.04 413.16 542.52 413.59 542.37 414.46 541.46 415.21 541.22 416.04 541.5 416.97 540.63 418.48 540.52 420.23 540.62 421.47 540.54 422.22 542.49 422.87 542.6 423.52 543.63 423.66 544.23 423.11 545.15 423.63 545.93 422.94 547.2 422.66 548.68 422.95 549.16 423.4 549.3 425.45 549.35 427.92 548.87 428.34 547.49 428.99 547.58 430.31 547.91 431.12 548.68 432.14 548.28 432.51 548.77 433.49 548.24 433.62 547.77 433.95 547.1 433.42 546.69 433.76 547.04 434.09 547.41 435.06 548.68 435.25 549.09 436.33 548.55 437.09 548.66 437.58 549.01 438.84 548.58 439.8 549.66 440.52 550.3 440.56 550.57 441.38 551.41 441.66 551.4 442.33 552.32 443.67 551.97 444.94 551.24 444.94 550.46 445.61 550.14 446.63 549.43 446.37 548.67 446.62 547.84 446.44 547.69 445.56 547.88 444.94 547.15 444.49 546.65 444.84 545.87 444.51 545 444.7 544.31 444.39 543.81 444.84 543.65 445.49 542.4 445.32 542.06 444.54 542.38 443.65 541.91 443.07 539.9 442.3 539.46 442.26 538.58 443.56 538.46 444.24 536.73 446.77 536.22 446.97 535.21 445.94 534.85 446.1 534.4 447.2 533.01 449.86 533.73 450.38 534.77 451.47 532.84 453.4 533.31 454.16 533.34 455.17 534.17 456.33 534.63 456.56 534.52 457.16 534.93 458.04 534.89 458.81 535.1 459.89 535.59 460.29 535.55 461.24 535.89 461.86 535.62 462.32 535.51 463.58 535.06 464.42 535.46 464.91 535.51 466.51 535.16 466.81 534.67 468.06 535.31 468.41 535.5 469.43 535.23 469.73 535.49 470.29 536.5 470.89 536.9 470.38 538 469.91 538.64 470.38 539.06 470.34 539.53 471.12 539.36 472.28 540.01 473.43 540.46 475.34 541.16 475.44 541.51 476.13 543.21 476.33 543.7 476.7 544.56 475.5 545.14 475.29 545.34 474.46 546.06 475.99 546.67 475.53 547.56 475.68 548.02 476.25 548.52 478.19 548.85 478.99 547.71 478.99 546.57 479.2 545.97 479.65 545.14 481.53 544.45 482.05 543.81 482.96 545.15 483.33 544.5 484.59 543.06 485.55 540.97 486.34 540.43 486.88 539.02 487.51 537.92 489.6 537.86 490.14 538.36 491.01 536.99 493.32 537.03 493.63 535.12 494.94 534.21 495.91 533.43 497.92 533.31 499.3 534.28 500.6 534.45 501.11 533.29 500.88 530.79 499.72 529.27 499.1 527.5 498.53 525.16 498.09 523.45 498.05 521.21 498.47 519.52 499 517.71 498.47 515.32 497.92 512.07 497.54 510.21 497.57 506.9 498.05 502.79 499.1 498.21 500.63 496.67 501.29 495.87 501.43 494.98 501.26 492.95 501.81 492.48 501.45 493.63 498.81 494.42 498.25 494.68 498.89 495.78 499.42 496.32 499.2 496.67 498.62 497.64 498.44 498.82 497.61 499.46 497.67 499.81 497.15 500.67 496.81 500.78 495.98 501.58 495.33 502.4 495.59 502.83 495.26 502.84 493.63 503.18 493.22 502.5 492.25 500.4 492.17 500.26 491.81 499.49 491.58 498.97 492.27 498.44 492.07 497.83 493.33 497.52 492.93 496.91 493.16 495.7 492.84 494.57 493.17 494.05 492.97 493.13 493.43 492.6 493.36 491.69 492.26 491.53 491.72 490.4 491.43 490.13 490.98 490.07 490.07 490.44 489.56 490.14 488.95 489.68 488.96 489.57 489.73 489.12 489.61 489.19 491.13 488.85 491.84 488.88 492.57 488.65 493.63 489.83 494.91 490.36 495.18 490.81 496.58 489.86 496.65 489.12 496.4 487.17 495.32 486.11 493.97 486.69 492.29 486.98 490.85 486.65 489.75 485.4 488.84 485.47 486.75 485.65 485.55 485.38 485.32 486.1 484.3 486.48 483.2 487.07 482.12 486.95 481.76 487.24 480.83 487.78 480.89 487.81 480.2 487.06 480.07 486.48 482.01 485.99 481.71 486.39 480.57 485.65 480.36 485.48 480.98 486 482.56 484.53 482.93 483.43 483 482.9 482.35 482.29 482.77 481.08 483.01 481.17 483.58 480.35 483.53 479.48 484.18 479.26 485.77 479.29 487.96 478.19 490.12 477.47 491.2 476.37 492.56 475.37 494.39 474.91 496.78 475.87 498.09 475.9 499.42 475.72 499.95 476.09 500.35 477.13 500.73 478.45 500.95 479.37 501.45 479.96 502.62 481 503.15 482.35 503.52 482.81 504.05 483.85 504.75 485.01 504.78 485.1 505.45 485.99 505.57 486.38 506.06 486.99 505.96 487.28 507.21 488.62 507.1 488.97 507.46 488.83 508.3 489.12 508.79 487.93 509.79 486.91 510.89 487.1 511.49 487.85 510.82 488.17 511.26 487.55 511.65 487.39 512.39 488.08 514.61 487.09 514.72 486.23 515.66 485.53 515.67 483.47 515.25 483.45 514.53 484.41 514.53 484.83 514.75 485.73 514.64 485.85 513.95 485.5 513.11 484.38 514.08 483.73 513.7 482.01 513.42 480.94 514.04 480.75 513.53 481.15 512.51 481.95 512.16 481.13 511.52 480.98 512.09 480.17 512.2 479.65 512.81 480 513.06 479.58 514.14 478.95 514.21 477.85 515.35 477.21 515.37 476.96 514.87 476.97 514.02 476.32 514.19 476.21 514.95 475.77 515.56 475.41 514.84 474.4 514.68 473.98 516.76 472.92 516.46 472.49 516.98 471.77 516.98 470.8 517.53 470.23 517.41 469.38 518.24 468.93 517.45 468.56 518.08 467.89 518.65 467.34 518.65 466.96 519.26 466.46 519.42 466.43 520.28 466.7 521.31 467.52 521.46 467.14 522.45 465.43 521.92 464.68 522.03 464.99 522.58 463.78 523.07 464.15 523.56 465.24 523.73 465.26 524.61 466.24 525.04 466.07 526.17 466.23 527.36 465.96 527.6 464.33 527.32 464.72 528.12 464.25 528.83 463.66 529.02 463.21 529.69 462.7 529.92 462.49 529.24 461.64 530.57 460.51 530.54 459.75 529.43 460.77 529.17 460.67 528.37 461.3 528.44 461.67 527.77 461.34 526.45 461.94 525.23 461.1 525.07 460.27 525.16 459.97 524.23 459.98 522.76 460.5 521.91 460.2 521.23 460.52 520.9 460.29 520.32 460.73 519.52 459.98 518.23 460.13 517.72 460.73 517.36 461 516.17 461.33 515.62 460.86 515.14 460.7 514.52 460.19 514.07 460.05 513.54 461.26 512.92 460.29 512.05 459.75 510.28 459.21 509.86 459.83 508.16 461.22 507.46 461.95 507.61 462.25 507.32 462.94 507.44 463.93 507.31 464.35 505.8 464.4 504.58 464.14 503.9 462.58 504.28 462.74 503.68 462.05 502.62 459.98 502.72 458.88 502.2 458.47 501.74 458.37 500.88 459.1 499.96 459.28 499.34 458.96 498.67 459.42 498.39 459.74 497.65 459.19 496.06 458.68 495.02 457.74 494.22 457.92 493.29 457.48 493.06 458.35 492.36 458.9 492.41 459.82 491.92 459.81 491.16 460.5 490.2 461.16 489.78 460.91 489.37 460.27 489.41 459.74 488.76 460.74 488.35 461.31 488.87 462.52 488.66 463.44 489.31 464.64 489.8 465.48 489.94 466.42 489.25 466.91 489.41 468.09 488.62 469.22 488.12 469.72 487.14 469.76 486.37 470.53 485.95 471.21 484.75 471.29 482.09 471.55 481.48 472.15 481.11 471.95 480.36 472.15 479.59 471.96 478.34 472.53 476.82 471.57 476.05 470.99 475.91 471.29 475.25 471.23 474.61 469.95 473.53 470.47 473.09 470.78 471.1 471.42 471.66 471.95 470.85 472.76 470.4 472.64 469.91 473.02 469.2 473.87 468.16 472.91 466.99 472.23 467.25 471.1 466.01 471.59 464.76 471.39 463.96 470.83 463.84 470.28 462.71 470.64 462.07 470.71 461.24 470.18 461.11 469.72 459.95 469.18 460.81 468.54 460.4 467.84 460.51 468.02 458.81 467.75 458 467.75 457.24 466.83 457.36 466.38 455.95 467.17 454.9 466.93 454.58 468.03 453.22 468.12 452.53 467.87 451.82 468.21 450.71 468.85 450.64 469.92 449.85 470.71 450.11 470.87 450.37 472.2 450.72 473.13 450.8 473.64 450.71 474.39 451.77 474.63 450.79 475.01 450.15 475.5 450.45 476.54 450.53 477.17 450.29 477.32 449.82 478.44 450.16 479.02 449.7 480.2 450 481.53 449.95 481.99 449.28 482.81 449.42 483.42 449.2 483.79 449.66 484.29 449.66 484.6 448.72 484.75 447.75 485.58 447.64 485.78 447.14 485.34 446.12 485.27 445.26 485.08 444.8 484.13 444.28 484.44 443.47 485.34 442.37 485.97 440.97 485.14 440.45 484.48 438.8 483.57 438.55 483.07 437.29 483.9 435.39 483.56 433.92 484.62 433.56 484.74 432.92 485.28 432.35 486.46 430.3 485.8 429.52 485.17 429.51 484.38 428.1 484.67 427.84 485.61 427.92 486.14 426.59 485.96 426.01 487.3 425.88 487.55 426.22 488.4 425.42 489.79 426.06 490.67 427.66 490.17 428.97 490.78 429.17 491.17 428.65 491.83 428.57 492.49 427.32 493.46 426.75 493.35 426.07 493.78 425.15 494.39 424.4 495.11 424.65 494.61 425.46 496.01 425.18 496.52 424.51 497.9 425.16 498.67 424.46 500.06 426.03 499.92 427 499.25 427.63 499.34 428.18 498.56 429.51 499.24 430.02 500 429.97 500.88 429.37 501.3 428.64 503.15 428.61 503.42 428.06 504.29 428.21 504.59 427.73 504.25 426.85 504.18 426.03 505.76 426.14 506.23 425.82 506.38 425.01 508.8 424.8 509.06 424.46 509.85 424.51 510.48 424.05 511.2 424.24 512.32 424.13 512.75 423.56 512.86 422.87 513.74 422.61 513.99 421.71 514.52 421.09 514.37 420.19 514.91 419.64 515.01 418.94 516.26 418.59 516.42 417.82 515.59 417.78 515.67 416.66 516.92 415.63 517.71 415.62 517.9 415.24 517.61 414.27 517.87 413.84 518.23 412.21 517.82 410.5 518.1 408.89 517.89 408.41 518.25 407.81 518.97 407.47 519.34 406.91 520.26 406.37 520.71 405.45 521.46 404.54 521.57 404.09 522.23 403.41 521.72 402.31 522.05 401.87 521.85 401.33 522.88 401.52 523.81 401.11 524.77 401.44 526.25 401.52 527.02 401.81 527.65 402.42 527.64 402.93 527.13 403.68 527.19 404.52 526.66 405.17 528.18 405.92 528.97 406.12 529.12 405.54 529.82 404.56 530.56 404.14 532.33 404.39 533.41 403.95 534.02 403.38 535.91 403.72 536.12 404.55 536.87 403.88 536.63 403.26 536.98 402.53 536.67 402.06 536.95 401.41 537.66 400.88 538.51 401.06 539.03 400.48 539.25 399.62 540.32 397.73 541.73 397.27 542.47 396.74 543.71 396.7 544.86 396.28 545.37 396.7 546.28 396.67 546.7 397.84 547 398.17 546.92 400.75 547.38 401.67 547.98 401.63 548.41 402.76 549.47 403.34 550.22 403.42 550.74 404.06 550.57 404.97 550.27 405.36 550.82 406.02 550 407.62 550.55 407.82 550.82 409.02 Z" fill="#ebc600" id="chuden"/>
<path d="M 455.5 452.64 455.68 452.87 456.97 452.65 457.21 455.36 456.67 455.98 457.02 456.76 456.93 458.49 457.65 458.81 457.75 459.48 457.54 460.06 457.66 461.26 458.46 461.04 459.19 461.38 459.64 460.8 460.42 461.29 460.46 460.09 460.67 459.29 462.44 459.49 462.91 458.39 462.02 456.1 461.43 455.23 461.98 454.03 462.62 453.82 463.42 453.88 463.7 454.39 464.84 454.69 465.98 455.2 466.54 455.72 466.49 456.65 466.83 457.36 467.75 457.24 467.75 458 468.02 458.81 467.84 460.51 468.54 460.4 469.18 460.81 469.72 459.95 470.18 461.11 470.71 461.24 470.64 462.07 470.28 462.71 470.83 463.84 471.39 463.96 471.59 464.76 471.1 466.01 472.23 467.25 472.91 466.99 473.87 468.16 473.02 469.2 472.64 469.91 472.76 470.4 471.95 470.85 471.42 471.66 470.76 471.1 470.47 473.09 469.95 473.53 471.23 474.61 471.29 475.25 470.99 475.91 471.57 476.05 472.53 476.82 471.96 478.34 472.15 479.59 471.95 480.36 472.15 481.11 471.55 481.48 471.29 482.09 471.21 484.75 470.53 485.95 469.76 486.37 469.72 487.14 469.22 488.12 468.09 488.62 466.91 489.41 466.42 489.25 465.48 489.94 464.64 489.8 463.44 489.31 462.52 488.66 461.31 488.87 460.74 488.35 459.74 488.76 460.27 489.41 460.91 489.37 461.16 489.78 460.5 490.2 459.81 491.16 459.82 491.92 458.9 492.41 458.35 492.36 457.48 493.06 457.92 493.29 457.74 494.22 458.68 495.02 459.19 496.06 459.74 497.65 459.42 498.39 458.96 498.67 459.28 499.34 459.1 499.96 458.37 500.88 458.47 501.74 458.88 502.2 459.98 502.72 462.05 502.62 462.74 503.68 462.58 504.28 464.14 503.9 464.4 504.58 464.35 505.8 463.93 507.31 462.94 507.44 462.25 507.32 461.95 507.61 461.22 507.46 459.83 508.16 459.21 509.86 459.75 510.28 460.29 512.05 461.26 512.92 460.05 513.54 460.19 514.07 460.7 514.52 460.86 515.14 461.33 515.62 461 516.17 460.73 517.36 460.13 517.72 459.98 518.23 460.73 519.52 460.29 520.32 460.52 520.9 460.2 521.23 460.5 521.91 459.98 522.76 459.97 524.23 460.27 525.16 461.1 525.07 461.94 525.23 461.34 526.45 461.67 527.77 461.3 528.44 460.67 528.37 460.77 529.17 459.75 529.43 460.39 530.16 460.51 530.84 459.82 531.61 458.43 534.24 457.85 535.81 457.37 537.48 456.55 538.66 456.23 539.6 455.84 539.74 455.68 540.73 454.63 541.11 454.81 541.87 454.78 542.86 455.27 543.85 454.05 544.04 453.27 544.58 453.82 545.02 453.04 545.55 451.25 546.5 450.57 546.65 449.7 547.26 449.13 548.75 449.63 549.3 449.34 549.73 448.06 549.27 448.89 548.89 448.75 548.1 447.56 547.82 447.24 548.14 446.16 547.71 445.02 547.61 443.85 546.86 443.48 547.08 442.07 546.92 441.77 546.53 440.98 546.57 439.68 546.16 438.87 545.11 437.43 545.17 437.41 544.66 435.99 543.95 435.36 543.04 435.67 541.91 435.13 540.89 433.84 540.58 433.41 540.24 433.8 539.76 433.75 539.11 435.2 539.22 435.59 538.65 434.83 537.52 434.21 537.74 434.21 536.99 433.31 536.91 433.04 536.14 431.12 535.36 430.04 535.43 430.05 534.71 428.34 533.84 427.95 533.03 427.53 532.74 427.36 531.8 426.87 531.14 425.8 530.72 424.46 530.96 423.87 530.34 424.76 529.97 424.5 529.5 425.14 528.42 424.66 528.08 425.07 526.54 426.21 526.35 426.96 525.68 427.5 524.69 427.39 524.27 426.59 523.52 425.52 523.25 425.18 522.39 425.64 522.12 425.87 521.19 426.43 521.12 426.58 520.4 427.73 520.62 428.26 519.99 428.21 519.08 427.85 518.43 427.11 518.47 426.71 518.18 426.9 517.49 426.67 516.75 426.05 515.98 424.92 515.24 423.98 515.13 424.4 514.56 424.21 513.96 424.42 513.42 425.38 512.79 427.96 511.99 428.61 512.05 429.47 511.68 430.6 510.34 431.02 510.19 432.06 509.06 432.65 508.64 433.18 507.8 434.18 507.21 434.98 504.75 436.45 504.31 436.92 503.76 437.4 502.72 436.18 502.55 435.88 500.9 436.35 501.16 436.9 499.96 437.49 499.58 437.36 499 436.43 498.2 436.38 497.31 435.9 496.93 435.02 496.97 433.68 495.7 432.54 496.04 431.9 496.47 430.04 496.7 429.09 497.31 428.49 497.43 428.25 498.79 426.66 499.12 425.73 499.13 423.93 499.81 423.26 499.69 422.49 499.05 421.21 499.13 420.53 498.79 419.35 497.86 418.63 497.65 418.28 497.2 416.5 496 415.79 496.38 414.77 495.25 413.77 494.52 413.5 494.01 411.62 493.37 411.19 493.66 410.46 493.4 410.17 493.75 409.04 493.8 407.32 493.63 406.87 494.18 405.38 493.13 403.73 493.86 402.95 492.99 402.84 493.78 402.09 493.81 402.08 494.61 401.28 495.47 400.38 495.53 399.63 494.92 398.85 494.84 398.57 493.77 397.96 493.21 398 492.33 396.84 491.15 396.08 491.07 395.79 490.22 396.13 488.78 397.01 488.25 397.23 487.82 395.8 486.19 396.56 485.47 396.39 484.81 396.81 484.03 396.22 483.68 396.17 483.22 396.74 482.4 397.31 482.05 397.99 482.05 398.07 480.35 399.12 480.04 399.25 479.05 399.74 477.69 401.33 477.2 401.14 476.64 401.32 475.95 400.3 475.6 400.23 474.58 400.79 474.15 400.99 473.6 402.1 474.1 403.72 473.09 404.92 472.05 404.58 470.4 404.55 469.53 404.86 468.78 404.48 468.27 403.56 467.89 403.42 467.53 403.73 466.36 403.69 465.73 403.11 465.25 402.31 464.98 402.08 463.95 402.21 463.57 401.89 462.21 401.34 461.87 401.79 460.73 401.64 459.82 401.11 459.59 401.18 458.76 399.85 457.61 401.06 457.54 401.62 457.18 402.69 456.99 403.04 456.52 403.56 456.51 404.22 455.81 405.84 455.27 406.44 456.04 407.12 455.62 407.82 455.72 408.87 456.48 409.89 455.42 410.86 455.83 411.62 455.93 411.72 455.42 412.51 455.73 413.42 455.51 414.26 455.61 414.71 455.23 415.3 455.5 416.3 456.4 416.69 455.7 417.82 455.79 417.79 456.23 419.17 456.23 420.65 455.42 421.32 454.26 422.62 454.39 423.97 453.59 424.7 452.93 424.84 452.23 426.87 451.78 428.49 451.18 428.99 451.2 429.71 450.67 430.83 452.02 431.87 452.83 431.99 453.67 432.51 454.2 432.32 454.73 431.21 455.34 430.73 456.02 430.38 457.35 429.29 458.37 428.38 460.01 428.59 460.88 429.11 460.69 429.11 459.83 429.83 459.28 430.74 458.28 430.6 459.51 430.12 460.55 430.38 460.99 431.18 461.07 431.9 461.83 432.66 461.99 433.03 461.43 433.5 462.26 432.9 464 433.32 464.01 434.03 463.11 435.81 462.79 434.83 462.25 433.87 462.34 433.57 461.07 434.83 460.16 435.85 459.89 436.68 459.37 437.03 458.81 438.09 459.51 438.53 460.4 438.32 461.03 438.61 461.57 439.86 461.37 439.58 462.39 440.49 463 441.93 462.82 442.87 461.92 443.46 461.67 443.88 460.92 444.58 460.57 444.77 461.18 443.92 461.73 444.26 462.17 443.48 463.12 443.89 463.44 444.62 463.44 444.96 462.79 445.41 463.05 446.28 462.81 447.53 462.82 447.98 461.92 448.05 461.23 446.85 461.58 446.86 460.8 445.94 460.4 446.74 459.56 447.98 459.67 448.28 460.67 449.02 460.39 449.7 461.45 450.94 460.97 450.65 460.28 449.95 459.76 450.44 459.36 450.95 459.86 451.75 459.02 451.64 458.11 450.9 458.11 451.01 457.55 450.61 457.2 450.95 456.65 452.06 457.86 453.19 457.21 453.99 457.82 454.56 457.61 455.13 456.9 455.43 457.28 456.06 456.95 456.26 456.45 455.58 455.62 455.93 454.6 455.73 453.44 455.13 453.06 455.5 452.64 Z M 421.93 500.5 422.73 501.89 422.39 502.49 421.66 503.19 421.61 504.05 421.12 504.98 420.25 505.81 419.87 506.53 418.66 507.81 418.17 509.4 418.14 511.3 418.86 512.05 419.13 513.15 419.81 513.65 420.18 514.98 418.44 515.56 416.32 516.61 414.72 517.83 413.95 517.8 412.41 518.28 412.44 517.53 411.37 516.92 411.73 516.15 411.49 515.79 410.33 515.74 410.39 514.98 409.97 514.65 409.97 513.78 410.44 512.87 410.82 512.59 411.61 512.7 412.3 512.33 413.32 509.97 413.57 509.96 414.03 508.79 414.33 508.52 414.77 507.29 415.49 506.44 416.11 506.53 416.43 506.17 417.29 504.55 417.87 503.91 418.74 503.64 419.5 503.07 421.24 500.78 421.93 500.5 Z" fill="#79ff76" id="kepco"/>
<path d="M 361.88 425.96 362.09 426.48 362.79 427.24 363.99 427.59 364.72 428.98 365.47 429.35 365.11 430.08 365.2 431.07 364.96 432.12 364.14 432.54 363.71 432.5 363.92 433.69 363.46 433.77 361.81 433.19 361.75 433.69 360.8 434.04 360.17 433.7 359.87 432.88 359.33 432.44 359.29 431.95 358.5 431.89 358.76 430.5 358.28 430.23 358.87 427.99 359.84 427.47 360.06 426.83 360.67 426.56 361.2 426.83 361.88 425.96 Z M 354.85 434.89 355.05 435.58 354.47 436.12 353.42 436.39 354.01 437.29 353.65 438.35 352.86 438.27 352.17 437.03 351.33 437.18 351.3 437.6 352.05 439.14 350.19 438.24 350.23 437.58 351.41 435.97 352.25 436.23 352.48 435.23 353.05 435.09 354.07 435.36 354.85 434.89 Z M 356.07 435.95 356.45 436.22 356.49 437.07 356.86 437.47 356.06 438.2 355.13 438.74 354.48 437.44 354.44 436.69 355.31 436.45 355.31 435.96 356.07 435.95 Z M 352.04 439.63 353.26 439.79 353.5 440.56 352.44 440.92 352.04 439.63 Z M 399.85 457.61 401.18 458.76 401.11 459.59 401.64 459.82 401.79 460.73 401.34 461.87 401.89 462.21 402.21 463.57 402.08 463.95 402.31 464.98 403.11 465.25 403.69 465.73 403.73 466.36 403.42 467.53 403.56 467.89 404.48 468.27 404.86 468.78 404.55 469.53 404.58 470.4 404.92 472.05 403.72 473.09 402.1 474.1 400.99 473.6 400.79 474.15 400.23 474.58 400.3 475.6 401.32 475.95 401.14 476.64 401.33 477.2 399.74 477.69 399.25 479.05 399.12 480.04 398.07 480.35 397.99 482.05 397.31 482.05 396.74 482.4 396.17 483.22 396.22 483.68 396.81 484.03 396.39 484.81 396.56 485.47 395.8 486.19 397.23 487.82 397.01 488.25 396.13 488.78 395.79 490.22 396.08 491.07 396.84 491.15 398 492.33 397.96 493.21 398.57 493.77 398.85 494.84 399.63 494.92 398.79 494.99 398.17 495.72 397.8 495.21 396.71 495.25 396.32 495.81 395.44 496 394.95 495.36 394.05 495.36 394 496.23 395.17 496.02 395.41 496.51 395.15 497.01 394.57 497.31 393.56 498.7 392.92 498.79 393.03 499.44 392.87 500.31 392.1 500.16 391.15 501.35 388.84 501.45 388.43 500.56 386.8 500.31 385.44 501.02 387 501.18 388.1 501.01 388.48 501.82 388.12 502 387.94 502.85 387.3 502.98 386.79 503.75 386.08 503.68 385.54 504.1 385.44 504.93 384.68 506.3 384.95 506.99 384.14 507.24 383.38 506.94 382.75 506.97 382.35 506.55 381.16 506.21 380.32 506.9 380.47 508.01 379.29 507.46 378.94 506.95 378.54 505.72 377.69 505.19 377.97 506.37 376.6 506.06 376.6 503.42 376.17 503.42 376.14 504.6 375.05 504.25 373.75 505.34 373.11 505.34 372.61 505.83 372.79 506.41 371.63 506.47 370.02 507.28 369.13 507.59 367.97 506.83 367.08 508.34 366.27 508.15 365.47 508.54 365.37 510.1 364.86 510.66 364.15 510.35 363.33 510.34 362.72 509.89 362.18 510.06 361.49 509.1 361.47 508.03 360.48 507.84 360.56 508.37 360.21 508.87 359.41 508.91 358.2 509.43 357.28 509.66 356.56 510.05 355.28 509.83 354.82 511.63 354.17 511.68 353.44 512.26 352.4 512.36 351.79 512.05 350.04 512.1 349.61 512.48 348.37 512.47 347.65 512.97 347.23 513.68 346.71 513.91 345.74 512.9 345.11 513.15 344.54 514.56 343.85 514.34 343.44 514.57 344.11 515.56 343.22 516.01 341.39 516.36 341.04 516.89 340.43 517 340.15 517.52 339.48 517.71 338.66 517.26 337.95 516.6 336.98 517.87 335.93 518.08 336.13 517.44 335.7 516.91 336.16 516.11 335.44 515.88 335.1 515.06 335.24 514.38 334.42 513.01 334.74 512.05 334.49 511.53 333.85 511.15 332.77 511.46 331.56 510.95 330.2 511.01 328.33 511.96 328.24 512.58 326.36 514.75 325.27 515.39 325.08 516.27 325.69 517.21 325.43 517.97 325.83 519.08 325.75 519.99 325.28 520.89 324.18 520.97 324.12 521.55 324.46 522.58 324.43 523.62 324.84 524.17 324.59 526.1 323.59 527.87 321.6 528.06 321.48 528.46 321.73 530.22 321.7 531.1 322.61 532.08 322.65 532.74 322.03 533.3 321.2 533.11 321.32 531.48 319.84 530.73 319.8 530.31 318.98 529.75 318.02 530.37 316.51 529.21 316.05 529.2 315.86 528.6 314.71 528.31 314.27 527.6 313.44 527.05 313.04 527.04 312.22 525.95 311.68 525.82 310.84 526.48 309.95 526.77 309.56 526.48 310.67 525.27 310.79 524.76 309.79 523.98 308.99 523.98 308.32 524.28 307.33 523.81 305.96 523.94 305.35 524.5 304.43 524.25 303.54 525.34 302.76 524.89 302.46 525.38 301.07 526.35 300.04 526.09 300.16 525.48 299.14 525.06 298.93 525.5 297.95 526.43 297.27 526.63 297.17 525.65 296.55 526.01 296.05 525.18 296.16 524.13 295.71 524.24 295.42 525.9 294.39 527 294.46 527.68 293.79 528.22 292.94 528.37 292.33 529.05 291.54 529.48 290.94 529.29 290.75 528.52 290 529.02 289.56 528.59 288.71 528.79 288.47 529.12 287.78 527.87 288.21 527.36 287.49 526.1 286.47 526.1 285.89 525.03 283.89 524.46 283.3 524.58 282.97 525.4 281.96 526.79 280.72 527.72 279.52 528.83 279.56 529.84 278.91 529.86 278.64 529.02 279.21 527.74 279.33 527.11 279.05 526.55 279.32 525.73 278.88 525.18 279.25 524.42 279.17 523.75 278.16 523.13 277.8 522.08 277.43 521.85 277.57 520.52 278.83 520.33 278.73 519.98 279.66 519.08 279.87 518.33 279.81 517.36 279.33 517.11 279.51 516.15 278.79 515.52 278.65 515.09 277.61 514.12 278.08 513.81 278.5 512.63 278.42 511.63 278.79 511.29 279.64 511.64 281.56 510.89 282.05 510.54 283.02 510.5 283.45 510.06 282.33 509.4 281.56 509.36 280.81 509.05 280.67 509.82 279.96 509.67 280.8 508.86 280.91 508.18 281.54 507.82 282.35 508.16 282.41 508.72 283.89 508.87 284.9 508.37 285.66 508.52 286.13 508.96 286.83 508.83 287.04 509.74 287.65 510.51 288.88 510.1 289.15 509.47 289.77 510.59 290.43 509.74 290.95 510.13 291.72 509.78 292.91 510.08 293.72 509.4 293.86 508.71 294.58 508.88 296.07 508.52 296.98 507.62 297.02 507.08 297.8 506.03 298.37 505.7 298.02 504.43 298.64 503.69 299.82 503.69 300.3 502.84 301 502.47 301.6 501.71 301.47 501.2 301.68 500.25 302.95 499.31 303.3 498.26 304.13 498.11 304.78 498.67 305.61 498.34 305.7 497.77 306.37 497.57 306.79 497.81 308.32 497.67 310.01 497.15 311.72 496.28 312.63 495.28 312.42 494.32 313.16 494.23 313.62 493.47 315.17 492.78 315.56 491.73 316.72 491.24 318.41 488.89 319.21 489.11 319.42 487.82 320.82 486.23 322.27 485.35 322.43 484.87 323.71 484.11 325.42 482.42 326.74 482.13 327.93 481.48 328.73 479.74 330.62 478.41 330.66 477.8 331.22 476.64 331.84 475.83 332.74 475.46 334.83 473.81 335.58 473.52 335.62 473.15 337.23 472.26 338.47 471.93 339 471.63 339.71 470.83 340.34 469.53 340.67 467.89 340.59 466.76 339.34 466.02 339.86 465.06 341 464.65 341.93 465.02 343.55 464.68 343.58 464.4 342.53 463.81 344.43 463.39 345.59 462.6 347.32 461.95 348.82 462.01 349.23 461.76 350.85 461.88 350.94 460.72 351.45 460.52 352.31 460.91 352.99 460.85 353.14 460.05 353.6 460.23 354.07 459.81 353.83 459.21 354.44 458.92 355.4 459.17 355.2 458.34 355.97 458.68 356.57 459.21 356.9 459.85 357.33 459.97 358.43 459.64 358.6 459.17 359.37 459.64 359.7 459.17 360.54 459.51 360.81 459.28 362.75 459.28 362.91 459.94 361.3 460.43 360.58 461.01 360.81 461.84 361.27 462.6 362.1 463.32 363.93 464.14 365.7 464.49 366.88 464.23 367.61 462.78 368.39 462.59 369.39 461.84 371.39 461.5 372.64 461.15 373.23 461.57 374.06 461.69 375.38 462.22 376.6 462.21 378.12 462.45 379.63 462.48 383.75 462.15 384.71 461.98 385.06 461.69 386.95 461.43 388.51 461.72 389.8 461.45 391.2 461.37 393.16 460.99 394.99 460.51 396.28 460.01 397.12 458.76 397.79 458.49 398.61 458.56 399.1 458.19 399.84 458.05 399.85 457.61 Z M 397.2 495.37 397.79 495.49 398.21 496.05 396.75 496.35 396.67 495.71 397.2 495.37 Z M 399.16 502.4 398.97 503.19 399.5 503.84 398.91 505.77 399.27 506.15 399.12 506.72 398.45 507.43 397.95 506.86 397.87 506.11 397.31 505.98 396.28 506.51 396.09 507.21 395.06 508.75 395.37 506.9 394.91 505.95 394.45 506.08 393.74 505.79 392.25 506.8 391.97 506.04 392.68 504.82 394.69 503.9 395.22 503.9 395.94 503.03 397.51 503.06 398.42 502.42 399.16 502.4 Z M 389.82 505.13 390.55 505.98 389.73 506.83 389.18 506.36 388.28 506.04 389.82 505.13 Z M 386.28 506.1 386.84 506.76 386.99 507.5 386.28 507.35 385.89 506.82 386.28 506.1 Z M 290.79 507.76 291.23 508.37 290.09 508.41 289.49 508.86 289.43 509.43 288.29 509.05 288.24 508.38 289.88 508.26 290.79 507.76 Z M 359.53 508.96 360.28 509.09 360.36 509.47 359.67 510.19 359.33 511 358.69 511.15 358.15 510.77 357.98 509.94 358.23 509.53 359.53 508.96 Z M 370.8 509.3 371.32 509.7 371.09 510.77 370.06 510.02 370.8 509.3 Z M 363.12 510.51 363.35 511.04 362.63 511.77 362.17 511.25 363.12 510.51 Z M 355.96 511.06 356.44 512.05 355.97 512.83 355.44 511.92 355.96 511.06 Z M 357.26 511.11 358.2 511.25 358.2 511.73 358.84 511.98 359.17 512.79 358.83 513.7 358.76 514.64 357.98 513.83 357.52 513.65 356.71 512.18 357.26 511.11 Z M 354.7 512.16 355.08 512.97 354.77 513.51 354.32 513.39 354.34 512.49 354.7 512.16 Z M 356.63 512.92 357.24 513.62 357.18 514.03 356.07 514.68 355.63 515.18 354.94 515.43 354.41 514.74 354.97 513.26 356.06 513.16 356.63 512.92 Z M 328.73 513.12 329.25 514.4 328.2 515.31 327.74 515.93 326.71 516.47 326.3 515.56 326.95 514.9 327.21 514.16 328.33 513.59 328.73 513.12 Z M 352.43 513.61 352.89 513.77 353.71 515.35 354.01 515.35 353.87 516.65 354.09 516.96 353.19 517.45 352.13 517.4 351.81 517.71 350.64 518.18 350.12 517.45 350.8 516.65 351.7 516.65 351.86 515.6 351.62 515.14 351.48 513.97 352.43 513.61 Z M 360.02 513.91 360.28 514.36 360.01 514.94 359.34 515.33 359.56 515.78 359.06 516.12 358.99 514.93 359.45 514.25 360.02 513.91 Z M 333.93 513.99 334.52 514.9 334.29 515.84 334.46 516.15 334.25 517.64 333.72 517.99 333.79 518.71 334.27 519.9 333.05 520.6 332.71 520.41 332.62 519.08 332.74 518.48 331.91 518.63 331.83 517.95 330.59 516.75 330.65 515.26 331.54 515.31 331.99 515.56 332.62 516.84 333.09 516.53 333.65 517.46 333.83 516.32 332.69 515.01 332.3 514.21 333.93 513.99 Z M 349.69 514.25 349.97 514.6 349.55 515.84 349.12 516.36 349.28 517.17 348.27 517.27 347.84 517.56 347.07 517.46 346.47 516.64 347.31 515.77 348.08 515.21 348.79 515.17 349.69 514.25 Z M 357.35 514.41 357.82 515.43 357.36 515.88 356.69 516.08 356.6 515.39 357.03 514.52 357.35 514.41 Z M 355.78 516.05 355.84 516.88 356.68 517.26 355.76 518.08 355.4 517.61 354.82 518.06 354.1 516.69 355.78 516.05 Z M 341.88 517.61 342.33 517.93 343.63 518.14 343.85 518.71 343.48 519.3 342.94 518.94 342.19 518.97 342.04 518.62 341.09 518.54 341.09 517.95 341.88 517.61 Z M 340.75 517.67 340.98 518.4 340.29 519.08 339.77 518.44 340.03 517.99 340.75 517.67 Z M 335.89 517.8 336.57 518.66 335.99 519.28 335.4 519.53 335.74 520.04 336.28 519.85 336.3 521.32 337.04 521.36 336.96 522.12 336.56 522.84 335.69 521.89 335.27 522.33 334.08 522.38 333.21 522.77 332.78 521.69 333.95 520.87 334.72 520.63 334.8 520.06 334.37 519.53 334.65 518.5 335.51 517.82 335.89 517.8 Z M 353.34 518.02 354.37 518.16 355.12 519.6 353.26 521.7 352.47 521.58 352.86 519.98 353.45 519.92 353.22 519 352.81 518.78 353.34 518.02 Z M 346.66 518.04 347.43 518.85 346.71 519.46 345.76 519.88 345.22 519.77 345.16 519 345.82 518.39 346.66 518.04 Z M 344.57 518.28 345.02 518.78 344.81 519.26 344.11 519.46 344.04 518.92 344.57 518.28 Z M 330.54 518.77 331.49 519.22 331.59 519.88 330.66 519.91 330.54 518.77 Z M 325.27 527.62 326.37 528.4 327.08 528.1 327.66 529.61 328.64 530.37 329.33 530.23 330.08 529.25 331.21 529.21 331.34 528.64 331.91 528.17 332.86 529.08 331.79 529.61 330.3 529.84 329.83 531.26 330.04 531.97 328.56 531.7 328.9 531.15 328.42 530.79 326.91 530.46 326.49 531.41 324.88 531.52 324.18 531.28 323.29 530.37 323.27 529.18 323.72 528.86 323.53 528.31 324.54 528.18 324.61 527.7 325.27 527.62 Z M 319.69 532.21 320.04 532.77 320.71 532.81 320.86 533.57 320.31 533.54 319.25 534.55 319.24 533.84 319.85 533.5 319.69 532.21 Z M 324.44 533.9 324.88 534 325.39 534.75 325.77 534.79 326.36 535.57 326.13 535.92 325.34 535.34 324.69 535.44 324.09 534.52 324.44 533.9 Z M 316 534.72 316.91 535.47 315.89 535.96 316 534.72 Z" fill="#8bffe8" id="energia"/>
<path d="M 379.16 509.32 379.67 509.77 378.72 510.66 378.34 509.89 379.16 509.32 Z M 376.77 509.36 377.09 509.6 377.54 510.58 376.79 511.31 375.96 511.03 376.15 510.25 376.77 509.9 376.77 509.36 Z M 391.55 509.37 392.42 509.77 392.65 510.4 392.31 511.79 392.71 512.48 393.22 512.52 393.41 511.77 394.55 511.45 395.1 512.01 395.86 511.58 396.21 512.75 395.57 513.26 396.1 514.3 397.18 514.68 397.61 514.52 398.75 515.43 399.65 515.71 400.61 515.56 401.24 516.26 401.18 516.77 402.2 517.51 403.48 517.41 404.29 516.77 405.78 516.7 406.42 516.89 406.8 516.28 407.32 516.15 407.52 516.76 407.29 517.64 408.69 518.59 409.36 518.65 408.39 520.22 408.03 521.2 408 522.65 407.81 523.97 407.47 524.97 407.75 526.18 408.53 526.79 409.38 526.1 410.25 527.83 411.31 528.33 411.58 529.36 411.33 530.18 410.23 531.32 409.04 531.86 409.19 532.17 410.27 532.8 410.92 532.44 411.61 532.54 411.37 533.14 412.06 533.33 412.81 532.88 413.01 533.3 410.21 534.64 409.66 535.08 408.62 535.2 407.94 535.82 407.18 535.91 406.69 537.43 405.92 537.3 405.89 538.01 404.48 539.08 403.18 539.69 402.24 540.39 401.56 540.28 401.02 540.52 400.39 541.26 399.63 541.83 400.52 542.06 399.8 542.75 399.63 543.5 398.19 543.77 397.8 544.03 397.61 545.18 396.92 545.93 397.01 546.39 395.37 548.77 395.36 549.23 394.27 551.63 394.38 552.09 394.09 552.85 393.48 555.87 393.36 557.24 392.63 557.05 391.78 555.76 390.86 555.85 390.52 554.46 389.65 553.89 388.82 552.76 388.31 552.64 388.02 550.88 385.54 549.64 384.9 548.73 384.67 547.77 383.8 547.45 381.3 546.91 380.66 546.58 378.91 546.57 378.42 545.89 377.5 545.63 376.38 545.71 373.75 546.24 372.46 546.63 371.1 546.47 371.67 547.37 368.3 549.19 366.88 549.36 365.58 550.1 367.19 550.23 367.54 549.77 368.05 550.26 366.42 550.95 366.3 551.2 364.15 551.39 363.55 551.93 363.63 552.55 361.81 552.07 361.24 553.03 360.97 554.21 360.12 554.59 361.15 555.16 360.36 555.75 360.5 556.59 361.23 557.35 360.67 557.74 360.99 558.67 360.37 559.07 360.22 559.6 359.37 560.47 359.78 560.89 358.73 561.12 357.98 561.83 356.98 564.04 356.22 564.49 355.7 565.06 355.3 566.61 354.07 566.46 353.2 566.61 352.44 567.45 351.98 568.9 351.78 570.1 351.82 570.98 352.35 571.76 352.36 572.99 351.47 573.71 350.68 573.73 350.26 574.05 350.64 575.26 350.6 576.21 352.09 576.93 352.65 577.99 352.54 578.34 352.81 579.46 352.06 579.61 351.1 579.21 351.03 578.6 350.15 577.85 349.63 577.12 348.18 576.79 346.5 577.16 346.01 578.02 344.76 578.56 344.04 577.99 343.56 578.34 343.07 577.53 342.61 577.31 341.97 576.47 341.5 576.58 341.02 577.17 340.49 577.05 339.76 577.42 339.18 576.59 339.79 576.37 339.64 575.56 340.24 574.72 340.22 574.08 341.43 572.8 342.01 572.53 342.11 571.72 341.65 571.44 340.45 571.44 339.75 571.09 338.59 571.44 337.75 571.2 337.63 570.64 336.94 570.28 336.28 570.36 335.09 570.17 335.54 571.42 335.18 572.07 333.83 572.06 333.54 570.77 334.42 570.49 334.7 569.92 333.96 569.69 334.11 569.12 335.08 569.45 334.63 568.38 334.68 567.75 334.08 567.66 334.06 566.26 333.43 566.03 333.89 565.13 333.43 564.34 333.68 563.07 334.49 562.35 333.81 562.2 333.02 562.39 331.97 561.59 332.39 561.02 333.21 560.5 333.79 561.02 334.95 560.76 334.68 559.67 334.99 559.21 335.65 559.15 336.38 558.72 335.41 557.88 335.81 557.04 334.93 557.28 334.68 556.89 333.95 556.64 333.99 556.04 334.83 555.35 334.33 554.51 333.34 555.09 332.51 555.12 331.72 555.43 331.08 554.96 330.04 554.65 330.27 554.05 330.78 553.95 331.41 553.38 331.46 552.85 330.7 552.58 330.36 551.93 330.92 551.58 330.61 550.57 331.59 549.73 331.4 548.98 330.65 548.92 329.82 548.06 329.34 548.37 327.59 548.29 326.93 549.45 326.07 549.68 325.45 550.3 323.56 550.88 322.53 551.81 322.28 552.41 321.69 552.91 320.74 552.99 320.49 551.93 320.06 551.55 321.18 550.67 321.94 550.57 322.54 551.12 323.27 550.26 323.14 549.54 324.96 549.54 325.22 548.82 326.38 548.94 327.44 547.76 327.85 547.76 328.75 547.08 330.65 546.06 331.72 545.36 332.25 544.41 333.62 542.83 334.26 542.29 335.67 541.46 337.44 540.85 339.38 539.29 339.9 538.99 340.67 537.56 340.78 536.99 341.35 536.61 341.57 536.03 341.12 534.44 341.32 533.94 341.21 533.11 341.92 532.38 341.58 531.29 341.91 530.13 342.86 530.31 343.43 530.05 344.02 527.92 344.16 526.73 344.02 526.28 345.04 525.82 347.07 523.93 348.1 523.74 348.57 523.39 349.25 523.43 349.31 522.71 349.63 522.27 349.32 521.34 350.12 520.43 350.39 520.95 351.09 521.39 351.94 522.88 352.78 523.66 353.33 524.65 354.41 527.27 355.13 528.33 355.8 528.42 356.71 529.31 358.04 528.78 360.21 528.26 360.8 527.8 360.71 527.27 361.87 526.78 362.72 526.96 363.39 526.5 364.05 526.62 364.48 527.12 365.6 526.83 367.82 526.93 368.21 527.28 369.11 527.53 369.89 527.5 371.03 526.79 371.08 525.94 371.78 525.69 372.49 524.8 373.94 524.01 374.28 522.71 374.25 521.44 374.66 518.43 374.2 517.45 373.34 516.83 373.18 516.41 372.32 515.94 372.61 515.43 373.37 515.66 373.75 516.31 374.63 516.42 375.6 516.24 376.41 516.36 377.76 515.14 377.55 514.49 378.95 514.08 378.63 513.58 379.32 513.16 379.6 513.62 380.76 512.51 380.69 511.98 381.78 511.03 381.95 511.65 381.3 511.95 381.72 512.52 383.26 511.3 383.07 510.46 384.18 510.29 386.11 510.48 386.84 511.27 389.83 511.5 390.51 510.31 391.01 510.32 391.55 509.37 Z M 408.05 515.63 408.49 515.94 407.74 517.04 407.46 516.54 408.05 515.63 Z M 409.17 516.39 409.18 516.73 408.53 518.16 408.26 517.59 408.73 517.06 408.53 516.5 409.17 516.39 Z M 339.62 525.59 339.62 526.74 339.38 527.11 339.62 527.88 339.24 528.18 337.79 528.06 337.7 527.49 338.32 526.79 338.86 526.55 339.62 525.59 Z M 336.62 526.45 336.04 527.87 335.85 526.73 336.62 526.45 Z M 341.61 529.31 340.66 530.41 340.89 531.23 340.25 531.42 340.45 530.56 340.17 530 341.61 529.31 Z M 336.27 578.34 337.09 579.06 337.06 579.99 336.43 580.23 336.07 579.27 336.27 578.34 Z" fill="#d16eff" id="yonden"/>
<path d="M 227.88 496.61 229.02 496.97 228.91 497.57 229.55 498.13 229.13 498.53 229.49 499.01 229.17 500.06 228.77 500.12 229.03 501.51 228.88 502.84 227.69 504.79 226.67 505.7 225.92 506.89 225.32 507.12 225.16 507.92 225.62 508.52 225.8 510.54 226.18 510.97 225.45 512.06 225.12 513.47 224.62 513.34 224.48 512.62 224.79 511.69 224.06 510.61 223.75 510.88 223.42 511.84 222.27 511.72 221.89 511.22 221.3 511.48 220.38 510.97 221.62 510.72 222.05 510.34 221.93 509.74 222.21 505.94 222.62 505.65 222.78 504.97 223.88 503.52 223.21 502.61 222.44 502.58 223.15 501.06 223.59 499.51 224.74 498.78 225.81 498.81 226.46 498.09 227.05 497.12 227.88 496.61 Z M 219.57 512.28 220.26 512.39 220.41 512.78 220.18 513.68 220.6 513.88 222.12 512.48 223.14 513.34 222.88 514.23 224.29 513.61 224.75 514.53 223.94 514.6 223.46 515.96 223.72 516.34 222.87 517.78 222.74 519.46 222.01 520.09 222.28 520.74 221.7 520.9 221.54 521.39 220.46 522.2 218.82 521.27 218.38 521.55 218.32 520.4 218.68 518.29 218.9 515.84 219.28 514.9 219.28 513.06 219.57 512.28 Z M 282.26 527.51 283.06 527.96 282.64 528.7 282.71 529.61 281.82 530.43 282.37 530.88 282.01 532.5 280.85 533 281.07 534.25 281.65 534.28 282.15 534.79 282.86 535.99 282.25 536.44 283.64 539.22 284.04 539.42 284.55 540.62 285.71 542.25 286.26 541.76 287.84 542.33 289.54 542.37 289.71 542.8 290.53 542.95 290.79 542.57 291.54 543.55 291.97 543.84 293.87 543.82 294.09 544.23 294.96 544.03 297.11 544.15 297.04 543.37 299.5 541.2 299.65 540.1 301.25 539.82 301.79 539.4 302.66 539.15 303.73 539.88 304.24 539.6 305.02 540.35 305.29 540.1 306.06 541.38 306.39 541.32 306.71 542.49 307.71 543.59 308.16 545.43 307.79 546.55 308 547.42 307.88 548.45 307.13 549.66 306.78 551.1 306.22 551.14 305.66 550.63 304.74 550.57 304.26 551.01 304.9 552.05 304.72 552.42 303.07 552.62 303.07 553.45 302.71 553.64 301.48 553.51 300.95 552.81 299.67 553.06 299.55 554.35 299.84 555.31 300.09 556.89 300.91 557.32 302.71 557.82 303.69 557.19 306.37 556.45 306.84 556.64 308.32 557.74 310.1 558 311.19 557.77 313.33 556.91 313.78 557.1 313.29 557.91 312.8 557.95 312.82 558.79 312.29 559.55 312.34 559.94 311.35 560.5 310.97 561.26 310.93 561.91 310.35 562.64 310.59 563.04 311.58 563.3 312.3 562.75 312.85 562.64 313.17 563.46 312.1 564.52 312.37 564.95 314.09 564.89 314.08 565.32 315.93 565.05 316.21 565.51 316.73 565.25 317.34 565.54 316.35 566.15 315.15 565.85 314.39 566.23 314.43 566.98 313.7 567.66 313.95 568.08 313.54 568.92 314.57 569.23 315.32 569.77 315.71 570.34 317.37 570.78 318.32 570.6 318.67 570.28 319.95 570.41 319.89 570.94 318.11 570.75 317.49 571.2 317.49 571.96 316.55 571.68 316.63 572.64 317.16 572.87 316.59 573.79 315.76 574.47 315.74 575.25 316.66 575.21 316.61 574.5 317.42 574.88 317.44 575.22 316.16 576.25 315.29 576.14 315.25 576.71 313.92 576.66 313.31 576.2 312.8 577.31 312.93 577.85 312.68 579.09 312.23 579.17 311.76 580.05 312.1 580.62 311.64 580.92 311.08 580.28 310.71 581.06 309.68 581.63 308.88 582.27 309.22 583.29 308.95 583.52 308.57 584.62 308.15 585.01 306.98 585.24 306.45 586.03 306.1 586.99 306.1 588.15 307.11 588.16 307.02 588.69 307.66 589.14 306.25 590.12 305.24 589.55 304.93 590.59 305.16 591.03 306.04 591.52 305.39 592.52 304.67 592.67 304.26 593.73 304.43 594.14 303.96 594.61 303.76 595.44 302.92 596.82 302.31 598.85 302.24 599.66 301.86 600.63 301.14 603.29 301.09 604.02 300.39 605.88 299.12 610.28 298.37 613.34 298.1 614.83 298.1 616.94 299.08 618.27 298.45 620.36 298.57 620.93 298.23 621.4 297.95 622.61 298.33 623.06 298.37 624.57 297.88 625.12 297.04 625.52 296.2 626.78 296.07 627.62 295.56 627.72 295.68 629.17 295.26 629.7 295.71 629.99 295.8 630.61 294.89 631.21 295.21 632.81 294.93 633.26 294.25 633.56 293.92 634.14 293.89 634.81 294.43 635.23 294.01 635.68 293.34 635.36 293.03 634.47 292.14 634.81 291.16 634.88 290.49 633.9 290.68 632.97 290.14 632.77 289.37 631.89 288.18 631.93 287.61 631.36 287.03 631.4 286.16 631.09 284.84 631.81 283.5 633.26 282.96 634.29 282.86 635.85 285.89 637.02 285.88 637.67 284.82 638.5 284.88 638.94 285.94 639.17 286.51 638.7 286.84 638.92 286.04 639.78 285.28 640.23 284.56 641.09 283.93 641.24 282.83 641.11 282.48 641.58 282.33 642.64 281.33 643.59 281.5 644.18 280.86 644.8 279.41 645.41 277.8 646.53 276.93 646.77 276.45 646.61 275.03 647.06 274.43 647.69 273.33 647.99 272.05 649.13 271.44 649.49 271.14 650.26 270.69 650.03 270.99 648.66 270.95 647.84 270.34 647.5 272.26 645.73 272.88 645.6 273.44 644.69 274.08 643.08 273.67 642.24 274.31 640.7 274.77 640.33 275.11 638.5 274.92 637.97 275.35 636.67 274.51 635.24 273.78 633.2 272.76 631.96 271.71 631.49 271.58 630.54 271.71 628.81 271.98 628.23 271.7 627.72 270.97 628.14 270.61 627.81 269.57 628.1 268 626.31 269.25 625.03 270.39 624.81 271.81 625.26 272.34 625.76 272.15 627.27 272.68 627.64 274.03 627.43 274.81 626.44 274.77 625.84 275.28 624.58 276.04 623.59 275.69 622.53 275.07 621.72 274.13 621.49 272.85 621.4 272.36 620.79 271.33 620.34 270.38 620.63 268.83 621.81 268.62 622.49 268.93 623.56 268.44 623.98 268.36 624.6 267.49 625.19 266.93 626.06 267.24 626.67 266.84 628.09 266.44 627.98 265.33 631.45 265.67 633.52 266.39 635.02 266.96 636.97 267.27 637.59 268.51 638.51 269.06 639.15 270.33 639.36 270.42 639.78 270 640.54 270.26 641.31 269.35 641.77 269.88 642.15 269.23 643 268.51 642.94 267.86 643.47 266.71 643.13 266.25 643.57 265.51 643.66 265.02 643.16 265.32 642.34 265.07 641.71 264.16 640.62 262.9 640.09 262.48 640.36 261.72 640.13 259.69 640.2 258.36 639.91 258.08 639.52 257.21 639.55 257.03 640.33 256.49 639.95 254.87 640.16 254.87 639.34 254.41 638.85 254.41 638.31 255.2 637.97 254.83 637.35 254 637.51 254.6 636.17 253.98 635.93 252.43 634.32 252.05 633.4 252.88 632.44 253.84 633.65 255.2 633.99 255.57 633.65 256.84 633.01 257.49 632.05 258.58 629.5 258.95 627.72 259.02 626.44 258.77 624.51 258.35 623.5 257.77 622.98 256.92 621.54 256.5 621.46 256.15 620.52 255.61 620.37 254.78 619.52 253.91 619.41 253.64 618.55 253.16 617.94 253.38 617.09 254.13 615.92 254.43 614.89 255.02 613.8 255.16 613.11 254.67 610.73 254.34 610.04 253.62 609.54 253.62 608.82 254.04 608.68 254.44 607.78 254.47 606.6 254.09 606 253.35 606.26 253.46 605.16 254.67 604.33 256.64 604.17 257.29 604.99 258.12 605.01 259.63 603.87 260.01 603.23 259.86 602.8 260.59 601.47 260.35 601.21 261.38 599.76 261.65 599.96 262.56 599.66 262.17 599.15 262.52 598.4 263.02 598.26 263.05 597.57 263.65 597.73 263.78 596.38 264.13 595.4 265.06 594.71 264.71 594.1 266.32 592.3 267.37 591.56 267.05 590.66 267.22 589.86 266.46 589.78 266.27 589.03 266.97 588.89 267 588.31 266.09 587.78 266.54 587.2 266.96 587.26 267.69 585.99 268.59 584.96 268.86 585.2 269.47 584.55 268.87 583.98 268.83 583.39 267.46 583.82 266.92 583.67 265.6 583.94 265.19 584.21 264.34 584.17 263.63 584.48 263.09 583.73 263.4 583.33 264.77 582.46 266.05 582.01 267.14 580.6 268.56 580.01 268.41 579.25 268.56 578.66 268.26 577.54 268.52 576.84 268.33 575.95 267.64 575.07 267.05 574.65 265.61 574.24 265.75 573.14 263.96 572.04 263.29 572.03 262.79 571.16 262.49 570.02 262.34 568.62 261.89 568.35 261.62 567.7 262.06 566.9 262.17 565.89 261.64 564.42 260.88 564.12 261.19 563.58 260.35 563.05 260.41 562.28 257.41 561.97 257.32 561.35 255.97 560.08 255.53 560.01 255.1 561.19 253.96 562.01 252.56 563.39 251.82 563.57 252.43 564.48 252.39 565.03 252.99 565.81 254.04 568.1 255.06 569.12 255.04 569.76 254.44 569.87 254.28 570.66 253.62 571.65 253.14 571.65 252.7 572.23 251.42 572.98 252.2 574.17 252.86 574.7 253.58 574.61 255.01 573.97 255.8 573.28 256.41 573.43 257.15 573.14 257.94 573.21 259.18 574.07 260.54 577.3 260.21 577.88 260.41 578.93 259.4 580.19 259.8 580.73 259.68 581.3 258.55 582.2 257.87 582.55 257.01 582.46 255.74 583.53 255.02 584.45 254.03 584.32 253.69 584.97 253.18 583.8 251.9 583.07 251.9 581.7 252.13 581.33 253.79 580.26 254.55 579.35 254.59 578.34 254.22 578.32 253.62 576.65 252.36 576.56 251.7 576.9 250.28 576.63 249.32 577.17 248.15 578.11 245.9 577.87 245.48 578.22 245.8 578.83 243.98 581.33 243.71 582.09 241.59 583.31 241.66 583.77 240.55 585.01 239.83 585.44 238.12 585.51 239.11 584.92 239.92 584.21 240.03 583.63 240.7 582.39 241.05 581.19 240.76 580.79 241.93 580.64 242.14 579.77 241.02 579.69 241.31 579.2 240.56 578.72 240.85 578.27 240.37 577.46 239.56 576.5 239.39 575.79 238.69 575.67 238.17 576.09 237.53 575.12 236.36 574.24 236.13 572.98 235.49 571.87 235.2 570.96 234.61 570.28 234.4 568.97 235.3 567.72 235.02 566.6 235.41 566.45 235.54 565.62 235.89 565.1 236.15 563.93 237.89 564.95 238.16 565.85 239.03 566.03 238.13 567.3 237.98 567.82 238.58 568.31 239.03 567.42 239.7 567.76 240.4 567.76 241.18 569.26 240.93 569.99 240.95 570.86 239.8 570.7 239.94 571.42 240.55 571.92 240.61 572.8 240.1 573.37 241.54 574.34 242.24 574.53 242.86 574.27 243.11 573.35 243.74 573.07 244.15 573.56 245.01 574 245.53 573.78 246.82 574.93 247.49 574.81 247.02 573.98 246.03 573.21 246.18 572.58 245.06 571.42 244.85 570.75 244.82 569.38 245.6 568.69 245.44 567.51 244.16 566.41 243.6 565.73 243.03 565.41 241.65 565.59 241.17 565.27 240.36 565.24 240.13 564.65 239.22 564.89 239.32 565.56 238.44 565.48 237.9 563.96 238.73 563.91 238.78 563.34 239.2 562.88 238.6 562.07 238.33 562.58 237.6 562.39 237.64 561.67 237.04 561.6 237.23 562.89 237.02 563.24 235.52 563.41 235.71 562.93 236.43 562.41 236.09 561.21 234.88 560.81 235.3 560.42 234.98 559.96 234.31 560.23 233.77 559.48 233.12 559.18 232.26 559.14 232.15 557.4 232.48 556.59 233.27 555.57 232.51 555.2 232.07 554.21 232.4 554.05 232.58 552.24 234.33 552.96 235.36 552.46 235.85 552.92 236.4 553.02 237.04 553.64 237.69 553.41 238.44 552.77 239.07 553.32 239.5 552.61 240.04 552.68 240.06 554.02 240.47 554.23 241.48 555.42 241.88 554.55 241.93 553.83 242.81 551.89 242.62 551.06 242.14 551.17 241.44 550.82 240.72 549.95 240.03 549.64 239.79 549.15 240.17 548.43 241.04 547.92 241.29 548.56 241.81 548.43 241.76 547.45 241.39 547.01 242.05 546.55 242.49 545.45 243.24 545.87 243.74 545.15 244.88 545.67 246.25 546.66 245.39 547.49 245.52 548.39 246.32 548.21 246.02 548.96 247.26 549.45 248.04 549.47 248.78 549.06 248.61 548.7 249.01 547.42 250.76 546.84 251.61 546.85 252.04 546.02 252.67 545.67 252.05 544.45 251.61 544.12 250.79 544.53 250.46 543.71 252.46 543.23 252.93 542.7 252.81 541.84 253.39 541.79 254.63 540.96 254.64 540.22 255.57 540.96 255.19 541.57 255.43 542.34 255.97 542.56 256.88 542.55 256.6 543.36 256.8 543.73 257.53 543.86 258.16 543.55 258.24 543.1 259.42 543.25 261.16 542.61 261.42 542.07 261.47 540.85 262.52 540.41 262.18 539.88 261.55 539.53 261.08 540.1 259.98 540.51 259.79 541.22 258.77 540.6 257.67 540.39 257.33 539.74 257.94 539.37 258.35 540.4 259.14 540.51 260.35 540.03 261.16 539.46 262.31 538.2 262.94 537.79 263.65 536.59 263.77 535.74 263.44 535.15 262.89 534.87 263.14 534.2 263.85 533.87 264.08 532.51 265.38 532.12 265.83 531.17 267.04 530.83 267.22 531.28 268.1 531.37 269.06 531.21 270.14 530.72 270.63 529.81 271.3 528.97 272.2 528.83 272.76 529.2 273.64 529.14 273.64 528.53 274.21 528.45 274.47 529.01 275.5 529.16 276.1 529.61 277.18 529.2 278.52 530.6 279.28 530.62 279.81 530.15 280.34 528.84 280.95 528.44 280.95 527.83 281.95 527.83 282.26 527.51 Z M 236.84 532.08 237.75 532.54 239.23 532.71 239.08 535.34 239.87 535.92 239.98 536.86 239.64 537.13 238.01 537.26 238.05 537.64 237.23 538.43 236.62 538.32 236.09 537.67 236.4 537.11 235.9 536.6 235.03 536.67 235.36 535.49 235.13 534.37 235.67 534.2 236.35 534.39 235.89 533.07 236.84 532.08 Z M 231.76 551.01 232.21 553.13 231.49 553.55 231.22 554.24 230.43 554.56 231 555.07 230.82 555.43 230.04 555.58 229.94 557.27 228.28 559.15 227.59 560.13 225.55 561.04 224.6 560.5 224.96 560.09 225.46 560.4 226.51 560.38 225.77 559.47 225.88 558.52 226.37 558.1 226.56 556.81 228.04 555.75 227.54 555 227.9 554.32 227.7 553.61 229.22 553.26 229.81 553.27 230.05 552.51 230.52 552.88 231.68 552.22 230.89 551.88 231.03 551.36 231.76 551.01 Z M 216.89 555.47 217.3 555.75 217.34 556.45 217.69 556.83 216.59 557.85 215.87 557.66 214.91 556.82 215.42 556.28 216.77 555.88 216.89 555.47 Z M 216.44 561.26 216.28 562.56 216.04 562.9 216.63 563.61 216.18 565.54 215.93 565.74 215.86 567 215.57 567.34 215.83 568.86 217 568.48 217.54 567.95 218.36 567.95 218.81 568.92 218.75 569.31 217.72 569.86 217.41 570.59 216.29 570.64 215.75 571.44 215.68 572.1 215.3 572.39 215.9 573.92 215.57 574.12 214.79 573.77 214.6 574.38 214.84 575.23 214.68 575.68 214 575.5 214.15 573.29 214.41 572.63 213.81 572.3 213.6 571.46 212.68 570.56 212.31 569.53 214.45 568.88 213.9 568.38 214.12 566.61 214.75 566.27 214.85 567.25 215.52 567.02 215.27 565.66 215.41 564.98 216.17 564.46 215.74 563.05 216.44 561.26 Z M 212.06 570.87 212.46 571.42 212.93 571.21 213.58 572.42 212.91 573.56 212 573.63 211.36 572.95 211.08 572.11 211.8 572.07 212.06 570.87 Z M 210.58 572.99 211.16 574.19 210.83 574.93 209.97 575.27 208.58 573.66 208.74 573.14 210.03 573.9 210.41 573.97 210.58 572.99 Z M 207.79 574.61 208.95 575.49 209.15 576.54 208.48 577.37 208.35 577.84 207.78 577.91 206.76 576.92 206.84 575.14 207.62 575.02 207.79 574.61 Z M 205.8 576.5 205.77 577.27 206.37 578.03 207.11 578.36 206.83 579.99 207.34 581.03 208.31 581.79 208.69 582.97 207.89 582.86 206.14 583.18 205.78 582.42 204.36 582.91 204.4 583.83 204.97 584.32 205.21 584.98 204.52 585.74 203.83 585.59 203.31 584.45 201.6 584.58 200.84 584.35 200.31 585.06 199.48 584.44 198.44 584.1 198.76 583.57 199.74 583.3 200.76 582.19 200.31 581.21 200.09 579.67 200.3 578.66 199.92 578.02 200.27 577.42 201.3 577.27 201.87 577.79 201.72 578.91 202.24 578.9 202.6 578.36 203.51 578.63 203.96 577.7 205.8 576.5 Z M 262.75 583.64 263.32 584.1 262.86 585.02 262.93 586.48 262.56 586.86 261.45 586.67 261.85 585.47 261.08 585.24 261.74 584.35 262.75 583.64 Z M 252.93 586.76 253.83 586.86 254.24 588.41 254.07 588.96 254.47 589.65 254.48 590.85 255.97 590.16 256.37 589.71 257.4 589.37 258.43 588.11 260.03 587.88 260.93 588.26 262.29 588.15 262.78 587.69 263.29 588.07 262.68 589.27 262.3 590.67 261.6 591.5 262.04 591.69 261.26 593.16 260.74 593.48 259.67 593.57 259.29 592.7 258.11 593.12 257.11 592.91 255.77 592.36 255.24 592.49 255.01 591.98 254.26 592.75 254.97 593.32 255.17 594.23 254.72 594.72 254.63 595.6 254.3 596.15 253.37 596.68 253.18 596.08 252.66 596.19 253.04 597.03 252.94 597.52 252.4 597.87 251.61 598.01 251.07 599.01 250.89 599.7 249.9 600.78 248.68 600.86 248.11 601.52 247.26 600.53 247.77 600.37 246.78 599.32 246.22 599.46 247.08 597.86 248.07 597.04 248.91 597.18 249.1 597.84 249.52 597.99 249.63 596.87 248.72 596.53 247.17 596.82 247.12 596.23 246.55 595.87 246.48 594.88 247.02 593.99 247.57 591.81 248.61 590.31 248.97 589.26 248.88 588.31 249.58 588.19 251.57 586.9 252.93 586.76 Z M 253.45 600.02 254 601.31 253.85 602.54 254.64 603.06 253.6 603.82 253.23 605.56 252.55 605.61 251.23 604.28 251.38 603.02 250.81 602.27 251.15 600.57 252.14 600.67 253.08 600.38 253.45 600.02 Z M 242.15 614.29 243.17 615.27 244.2 615.92 244.39 614.93 244.87 615.24 244.81 616.8 244.12 616.84 243.36 617.22 242.56 616.27 241.09 615.89 240.98 615.17 241.59 614.32 242.15 614.29 Z M 239.88 618.08 240.22 618.99 239.3 621.23 238.54 621.13 238.21 621.61 238.37 622.33 237.75 623.02 238.2 623.62 237.8 624.13 236.79 624.92 235.69 624.3 235.4 623.48 236.24 622.95 236.54 621.78 237.12 620.83 238.54 620.24 239.47 620.13 239.98 618.95 239.88 618.08 Z M 245.19 656.47 246.06 657.34 245.71 657.76 244.92 658.04 244.32 657.68 244.31 656.96 245.19 656.47 Z M 284.19 656.94 284.37 657.09 284.72 658.59 285.07 659.4 284.75 660 284.79 661.74 284.97 662.71 284.64 662.88 284.19 663.81 283.97 664.74 284.27 664.95 284.15 666.41 283.38 667.17 283.35 668 282.71 668.73 282.15 668.91 281.65 669.86 281.39 670.94 280.93 671.51 280.78 672.34 281.46 673.18 281.15 673.75 281.25 674.39 280.93 675.42 278.87 676.24 278.19 677 277.77 676.99 277.27 675.98 277.54 674.99 277.5 673.93 277.08 672.84 277.01 672 277.8 672.07 278.11 671.34 278.87 670.56 279.78 668.92 280.53 667.18 280.46 665.21 280.16 663.81 281.29 662.29 281.53 661.55 282.26 660.65 282.54 659.7 282.35 659.18 284.19 656.94 Z M 252.4 671.09 253.12 671.42 254.3 671.42 254.79 671.8 255.53 671.95 256.52 672.82 256.26 673.21 255.58 673.35 255.35 673.81 254.66 673.74 254.11 673.24 253.92 672.64 253.26 672.44 253.19 671.98 252.56 671.55 252.4 671.09 Z M 264.71 671.95 265.14 672.5 267.22 673.4 268.21 674.32 269.57 674.7 270.72 675.68 270.45 678.09 270.3 678.52 268.37 680.76 267.31 681.36 266.31 681.63 265.87 681.47 264.58 681.74 262.56 681.2 262.04 680.18 261.42 678.17 261.08 678.06 260.48 675.86 260.62 675.03 261.89 674.92 262.36 674.53 263.1 673.44 263.51 673.29 263.74 672.29 264.65 672.5 264.71 671.95 Z M 242.11 695.62 243.44 696.16 243.67 697.14 244.44 697.97 242.53 698.12 241.66 696.95 241.58 696.39 242.11 695.62 Z M 238.18 704.09 238.36 704.2 238.03 705.84 236.77 706.85 236.45 705.83 236.36 704.82 237.02 704.4 238.18 704.09 Z M 236.47 749.71 236.53 750.76 237.02 751.82 237.64 752.56 237.18 754.04 235.77 754.55 235.64 754.95 234.54 754.63 233.77 755.03 232.03 757.54 231.15 757.64 231.15 758.59 229.72 758.99 228.34 759.1 228.45 760.22 227.5 761.26 228.87 761.97 228.72 762.28 226.7 763.46 226.53 764.47 224.64 763.83 224.28 764.18 225.17 764.77 225.27 765.63 224.45 765.25 224.05 765.59 222.92 764.79 222.55 763.23 222 763.52 221.7 763.04 222.4 761.91 222.06 761.52 221.24 761.72 220.83 762.1 219.82 762.05 219.16 761.72 218.67 761.86 218.44 761.22 217.75 761.34 217.41 760.53 218.18 760.62 218.87 760.3 219.93 760.56 220.3 759.9 221.15 759.84 219.99 758.91 220.39 758.44 221.45 758.08 221.67 757.77 223.03 757.66 224.24 756.16 225.23 756.69 225.54 756.21 226.52 755.75 226.86 755.38 227.89 755.56 228.75 754.78 229.51 754.39 230.16 755 230.51 753.26 231.11 752.91 231.88 752.95 232.66 752.19 233.19 751.93 234.06 751.96 233.57 752.75 234.08 752.87 234.42 753.44 234.31 754.28 235.32 753.92 235.49 752.99 235.96 752.44 234.98 750.98 235.36 750.91 236.02 749.87 236.47 749.71 Z M 248 755.75 248.53 756.59 247.95 757.38 247.64 757.38 246.55 759.33 245.68 759.82 245.25 759.8 244.91 759.18 244.42 759.02 244.32 758.41 244.92 757.83 245.68 757.64 246.4 757.17 247.26 756.21 248 755.75 Z M 219.72 762.77 219.53 763.54 220.19 764.11 220.35 764.58 220.92 764.74 221.83 764.09 222.02 764.72 221.15 764.68 221.55 765.42 222.28 765.88 222.73 766.48 224.28 766.3 224.75 766.44 224.28 767.71 223.46 767.94 223.12 767.28 222.4 767.37 222.38 768.23 221.56 767.56 221.51 766.59 221.26 766.33 220.48 767.17 219.53 765.05 218.93 764.39 219.13 763.03 219.72 762.77 Z M 209.11 774.91 209.86 775.11 211.24 774.96 211.59 775.75 211.24 777.03 211.34 777.9 212.36 778.54 213.69 779.73 213.55 780.67 213.22 781.03 213.17 781.85 212.76 782.09 211.99 783.74 211.17 783.72 210.25 784.09 209.73 783.72 209.53 782.72 208.73 782.24 208.32 781.74 208.85 781.21 209.19 780.03 208.54 778.92 208.65 777.86 208.21 777.58 208.29 776.78 208.72 776.27 208.59 775.4 209.11 774.91 Z M 201.64 792.79 202.43 793 201.8 793.57 201.18 793.81 199.73 795.71 198.73 796.51 197.46 797.13 196.98 797.14 196.18 796.51 195.69 795.47 195.79 794.86 196.24 794.17 196.96 794.53 197.69 794.33 198.25 794.48 198.91 794.03 199.74 793.93 201.64 792.79 Z" fill="#7272ff" id="kyuden"/>
<path d="M 178.24 806.33 177.47 807.39 177.24 808.29 176.53 808.51 176.3 809.16 175.69 809.28 175.8 808.37 176.97 807.26 177.36 806.65 178.24 806.33 Z M 175.34 811.82 175.96 812.19 175.92 813.41 175.42 813.54 174.73 813.11 174.62 812.2 175.34 811.82 Z M 186.51 814.94 186.91 815.54 188.56 817.07 188.88 818.53 188.73 819.57 188.94 819.84 188.31 820.58 187.27 822.67 185.74 824.52 184 824.76 183.17 824.54 182.63 824.75 182.82 825.77 181.87 825.58 182.57 826.8 182.29 827.46 181.39 827.61 180.65 828.18 179.8 827.59 179.32 827.75 179.27 828.62 178.45 829.17 177.88 829.02 177.24 829.46 177.62 830.17 177.22 830.55 176.34 830.84 175.84 830.67 175.54 831.89 175.05 831.94 173.56 831.29 172.39 831.52 171.64 832.27 171.56 832.72 171.98 833.28 173.1 834.08 173.1 834.99 173.56 835.73 174.68 836.72 174.79 837.55 174.05 837.19 172.77 835.62 171.85 836.24 171.6 836.89 170.94 837.47 171.15 838.25 170.57 838.61 170.03 840.28 169.36 841.07 170.2 842.43 170.5 841.8 171.33 841.6 171.66 842.5 170.38 843.72 169.46 843.95 168.74 844.44 167.96 845.5 167.38 845.56 166.28 846.16 165.6 845.86 165.63 845.13 165.97 844.18 165.4 843.83 165.17 843.01 165.4 842.24 164.85 841.36 165.38 840.59 166.4 840.26 166.33 839.73 167.35 838.42 168.14 838.39 169.05 837.59 169.16 837.04 168.71 836.53 168.41 834.95 167.69 833.49 167.54 832.7 167.88 831.93 168.34 832.64 169.54 831.73 170.01 832.13 170.49 832.07 170.62 831.5 172.15 830.34 171.93 829.77 172.87 829.23 173.42 829.49 174.32 828.83 174.7 828.92 175.26 828.09 176.37 827.71 176.95 826.47 175.65 825.63 174.83 825.33 174.52 825.66 173.87 825.45 173.3 824.11 173.76 823.33 173.12 822.29 173.33 821.43 174.26 821.84 175.74 821.47 176.34 821.88 177.47 822.17 177.13 823.89 177.78 824.53 178.39 824.64 180.35 823.92 180.89 823.31 181.07 822.64 181.65 821.68 182.48 821.5 183.02 821.03 183 820.12 183.81 819.91 185.28 818.35 186.31 816.35 186.05 815.61 186.51 814.94 Z M 170.83 820.27 171.63 821 171.55 821.39 170.8 821.57 169.01 821.42 168.78 821.05 169.14 820.33 169.92 820.48 170.83 820.27 Z M 178.23 822.6 178.07 823.47 177.35 823.38 177.35 822.94 178.23 822.6 Z M 150.68 825.63 151.27 826.2 149.93 826.69 150.13 826.06 150.68 825.63 Z M 134.67 833.85 136.44 835.43 135.85 836.39 135.74 837.68 134.91 837.15 134.43 836.11 133.82 835.65 132.78 835.34 132.53 834.66 134.67 833.85 Z M 177.09 834.12 177.37 834.96 176.69 835.26 176.12 835.88 175.72 835.62 177.09 834.12 Z M 154.97 840.31 155.61 840.74 155.61 841.67 154.49 842.02 154.97 840.31 Z M 82.3 891.42 82.8 892.28 83.23 892.4 83.74 893.99 84.52 894.56 84.49 895.43 85.19 895.84 85.64 895.71 86.34 896 86.85 896.71 87.87 896.9 88.66 897.9 88.4 898.28 86.5 898.13 83.56 898.8 81.98 897.91 82.7 897.28 82.49 896.43 81.88 896.03 81.79 895.59 82.63 894.95 82.49 893.99 83.16 893.65 82.29 892.16 82.3 891.42 Z M 78.51 892.89 80.13 893.62 80.47 894.34 80.39 895.13 79.6 895.19 78.54 894.34 78.3 893.19 78.51 892.89 Z M 62.01 900.06 63.11 900.45 63.17 900.96 62.53 901.53 61.31 901.3 61.19 900.71 62.01 900.06 Z M 48.87 902.71 49.7 902.97 49.43 904.37 48.47 905.26 48.57 905.91 47.71 906.78 47.67 907.46 46.67 908.25 46.86 909.04 46.6 909.7 46.86 910.31 46.59 912.39 46.17 912.91 45.37 912.54 44.56 913.34 43.59 913.38 42.91 912.72 41.77 912.16 42.8 911.11 42.87 910.31 42.17 909.57 41.44 909.57 40.92 909.99 40.3 909.59 40.64 908.97 41.33 908.78 42.68 908.05 43.21 908.75 44.12 908.96 44.58 908.63 45.6 908.72 45.91 907.05 46.82 906.24 47.46 906.78 47.84 905.67 48.14 905.42 47.71 904.7 48.19 904.35 48.69 903.46 48.87 902.71 Z M 3.24 907.91 4.61 908.38 3.5 909.32 2.18 909.32 1 909.05 1.05 908.57 1.79 907.95 2.2 908.15 3.24 907.91 Z M 30.33 909.35 31.38 910.38 33.77 910.77 33.77 911.07 35 911.59 35.22 912.05 35.82 912.12 35.41 912.91 35.48 913.56 34.87 913.8 34.43 914.52 34.6 915.54 33.84 915.35 33.75 916.27 33.2 916.3 32.14 915.69 31.19 915.76 29.42 915.39 28.23 914.63 28.12 915.43 26.82 915.27 26.12 914.31 26.95 914.14 26.94 913.38 27.83 913.37 29.1 913.75 29.04 913 29.3 912.36 29.07 911.22 29.25 910.68 29.95 910.11 30.33 909.35 Z M 37.92 916.38 38.94 916.72 38.93 917.18 38.09 917.63 37.69 916.99 37.92 916.38 Z M 30.5 923.35 31.3 923.66 30.69 924.34 29.6 924.23 29.35 923.76 30.5 923.35 Z" fill="#c5c5c5" id="okiden"/>
</svg>